<?xml version="1.0" standalone="no"?>
<!DOCTYPE svg PUBLIC "-//W3C//DTD SVG 20010904//EN"
 "http://www.w3.org/TR/2001/REC-SVG-20010904/DTD/svg10.dtd">
<svg version="1.0" xmlns="http://www.w3.org/2000/svg"
 width="1024.000000pt" height="1024.000000pt" viewBox="0 0 1024.000000 1024.000000"
 preserveAspectRatio="xMidYMid meet">

<g transform="translate(0.000000,1024.000000) scale(0.100000,-0.100000)"
fill="#000000" stroke="none">
<path d="M0 5120 l0 -5120 5120 0 5120 0 0 5120 0 5120 -5120 0 -5120 0 0
-5120z m3773 4603 c-6 -15 -13 -16 -31 -4 -11 6 -10 11 4 25 13 13 19 14 25 5
4 -7 5 -18 2 -26z m-453 -1074 c23 -41 -6 -90 -44 -76 -18 7 -26 8 -25 5 2
-12 -33 -74 -59 -102 -35 -39 -55 -80 -44 -91 4 -3 7 -18 8 -33 3 -81 27 -172
41 -158 3 3 13 1 22 -3 9 -5 34 -12 56 -15 71 -11 109 -28 153 -70 49 -46 78
-60 101 -50 9 4 28 6 43 5 14 -1 29 2 33 8 3 6 15 11 26 11 10 0 19 4 19 9 0
11 97 51 124 51 26 0 40 -9 53 -35 16 -31 9 -69 -16 -81 -12 -6 -31 -21 -43
-34 -19 -20 -19 -22 -2 -18 11 2 18 9 17 15 -3 14 24 25 32 13 3 -5 1 -11 -5
-15 -6 -4 -8 -10 -6 -14 3 -3 -3 -7 -12 -8 -9 -1 -28 -4 -41 -9 -21 -6 -23 -5
-18 12 6 15 2 14 -16 -6 -23 -26 -71 -60 -84 -60 -4 0 -21 11 -37 25 -32 27
-41 25 -81 -22 -15 -18 -33 -33 -41 -33 -8 0 -32 -11 -53 -25 -56 -35 -81 -39
-139 -20 -47 16 -53 16 -84 1 -41 -21 -258 -33 -258 -14 0 6 -3 9 -6 5 -11
-11 -33 20 -52 74 -19 57 -14 106 16 142 7 8 15 23 17 33 22 94 38 134 54 134
26 0 123 123 114 146 -3 7 2 17 11 20 9 3 14 10 11 14 -3 5 -1 11 5 15 6 4 1
17 -11 35 -33 44 -23 123 21 178 38 47 51 50 98 22 l33 -20 17 30 c20 35 37
38 52 9z m3855 -54 c38 -37 37 -88 -1 -122 -29 -27 -79 -30 -104 -8 -15 14
-29 8 -145 -55 -70 -38 -131 -70 -135 -70 -4 0 -13 -28 -21 -62 -14 -63 -15
-63 -84 -105 -80 -49 -107 -52 -155 -20 l-34 24 -56 -32 c-161 -94 -591 -316
-600 -310 -23 14 -4 28 128 95 75 38 225 116 332 173 l195 104 15 64 15 64 80
42 c93 49 113 52 152 19 l29 -24 124 68 c69 37 124 73 122 79 -1 6 4 27 12 46
24 57 90 72 131 30z m-745 -85 c73 -39 21 -146 -53 -113 -18 8 -37 3 -97 -28
-41 -21 -81 -42 -89 -48 -8 -5 -23 -57 -35 -120 l-21 -112 -215 -112 -215
-112 -3 -45 c-1 -31 -9 -51 -25 -67 -27 -26 -167 -101 -655 -349 l-373 -189
-18 24 c-20 26 -68 32 -82 10 -6 -8 -7 -30 -5 -50 l6 -36 -90 -47 c-86 -45
-108 -70 -75 -82 8 -3 63 20 122 52 60 31 154 81 210 110 l102 53 43 -15 43
-16 280 147 c410 214 399 209 432 193 34 -16 50 -58 37 -95 -7 -21 -37 -42
-134 -93 -103 -55 -128 -73 -141 -101 -14 -28 -35 -43 -118 -83 -102 -51 -120
-66 -97 -85 10 -9 41 3 127 46 91 46 115 63 119 83 7 29 24 40 309 190 204
108 215 112 246 101 30 -11 41 -6 243 103 117 62 218 119 226 125 8 7 20 35
26 64 17 73 29 87 103 127 l66 35 45 -23 46 -22 110 61 c83 46 110 65 110 80
0 48 39 88 86 89 70 0 102 -93 49 -145 -28 -29 -70 -32 -102 -10 -20 14 -29
11 -137 -47 -109 -59 -116 -65 -122 -98 -14 -82 -22 -93 -99 -137 -84 -48 -98
-51 -138 -24 l-29 18 -111 -60 c-62 -33 -161 -86 -221 -118 l-110 -58 0 -38
c-1 -38 -1 -38 -104 -91 -85 -44 -104 -58 -116 -86 -17 -41 -2 -31 -221 -146
-160 -84 -180 -98 -180 -120 0 -16 6 -26 18 -28 9 -2 78 28 151 67 74 39 144
71 156 71 26 0 77 -25 82 -41 4 -11 160 68 683 345 l190 101 10 53 c12 59 20
68 108 113 54 28 59 29 87 14 41 -21 51 -19 112 17 29 17 63 38 76 45 13 8 22
23 22 38 0 41 63 61 95 29 40 -40 -9 -119 -58 -93 -15 8 -36 0 -107 -39 l-89
-50 -46 17 c-44 15 -46 15 -91 -9 -25 -14 -48 -28 -51 -33 -2 -4 33 -49 78
-100 100 -112 181 -219 253 -336 49 -80 136 -243 136 -256 0 -3 -11 -5 -24 -5
-21 0 -33 15 -77 98 -29 53 -88 149 -131 213 -76 112 -243 319 -259 319 -4 0
-9 -12 -11 -27 -2 -17 -13 -32 -33 -43 -16 -9 -190 -100 -385 -202 -481 -253
-458 -240 -478 -279 -13 -25 -37 -44 -94 -74 -89 -47 -92 -50 -83 -65 7 -11
33 2 403 199 224 120 206 121 269 -7 51 -102 56 -179 19 -256 -28 -58 -62 -89
-141 -128 -76 -38 -149 -53 -265 -53 -190 0 -280 43 -482 232 -189 176 -278
218 -458 218 -99 0 -109 -2 -174 -34 -90 -44 -126 -97 -126 -185 0 -80 31
-146 101 -217 100 -102 214 -168 514 -299 399 -175 576 -267 765 -398 143
-100 277 -234 361 -362 l16 -24 114 68 c159 95 435 281 552 371 l98 77 -6 66
c-12 120 -55 320 -90 422 -39 111 -39 110 -24 110 31 0 109 -304 134 -523 l6
-57 69 61 c60 53 121 123 92 105 -6 -4 -15 17 -22 51 -13 66 -75 321 -84 343
-3 8 4 26 15 40 l20 25 -6 -24 c-5 -17 -4 -22 6 -16 9 6 11 2 7 -13 -4 -12 -3
-20 1 -17 5 2 20 -35 34 -83 24 -81 35 -129 55 -242 l8 -45 47 60 c177 223
129 384 -131 439 -177 37 -502 29 -791 -19 -79 -14 -149 -25 -155 -25 -45 2
165 61 368 105 393 85 762 91 952 17 68 -27 131 -77 155 -123 18 -36 21 -55
17 -113 -15 -224 -286 -507 -833 -872 -145 -96 -507 -316 -537 -326 -6 -2 -2
-33 10 -73 61 -208 54 -386 -23 -601 -100 -281 -304 -503 -615 -671 -238 -129
-520 -194 -826 -192 -229 2 -237 5 -117 53 364 146 601 290 773 472 167 176
233 325 250 569 l8 110 -3 -135 c-2 -114 -7 -146 -28 -208 -38 -108 -82 -188
-152 -278 -107 -136 -351 -325 -537 -415 -27 -13 -48 -27 -48 -31 0 -11 18
-10 25 2 3 6 14 10 23 10 13 0 12 -5 -8 -20 -30 -23 -65 -27 -57 -6 4 10 1 13
-9 9 -11 -4 -12 -8 -3 -19 16 -20 2 -31 -21 -16 -16 10 -30 8 -77 -9 -86 -32
-89 -41 -10 -37 37 2 67 0 67 -4 0 -5 -12 -8 -27 -9 -120 -3 -163 -6 -170 -13
-15 -16 348 3 457 23 391 72 770 286 861 486 52 116 69 197 70 340 0 128 1
129 14 80 8 -30 11 -74 8 -107 -3 -40 -1 -58 6 -58 8 0 9 -5 1 -19 -14 -27
-13 -35 4 -18 8 8 16 27 19 43 3 22 4 18 6 -14 0 -26 5 -41 11 -37 6 3 10 14
10 23 0 9 5 24 10 32 7 12 12 12 22 2 7 -7 8 -12 1 -12 -6 0 -13 -12 -16 -27
-4 -16 -11 -35 -17 -43 -9 -13 -11 -13 -20 0 -8 11 -9 8 -4 -12 5 -22 2 -28
-10 -28 -10 0 -14 -6 -10 -17 5 -15 3 -15 -10 1 -9 11 -16 15 -16 9 0 -7 4
-15 10 -18 6 -3 -1 -23 -16 -48 l-25 -42 30 35 c16 19 49 68 72 107 106 185
152 397 130 598 -12 114 -28 194 -41 208 -4 5 -84 -32 -179 -82 -831 -439
-1839 -843 -2521 -1010 -396 -97 -656 -135 -930 -135 -277 -1 -382 24 -469
114 -132 136 -68 335 195 609 202 210 527 452 869 646 68 39 59 31 -80 -70
-188 -137 -318 -248 -471 -400 -250 -250 -347 -413 -315 -533 22 -78 88 -127
213 -157 74 -17 332 -20 441 -5 40 6 106 15 147 21 376 52 983 227 1510 437
331 132 975 417 1008 447 2 2 -13 36 -35 77 -40 77 -155 202 -263 286 -85 66
-279 160 -585 282 -367 146 -605 263 -699 341 -22 19 -36 27 -32 19 6 -13 5
-13 -6 0 -7 8 -20 16 -27 18 -22 5 -79 53 -143 119 -67 71 -146 190 -176 264
-12 30 -27 68 -34 84 -14 34 -15 41 -17 73 -2 32 -21 27 -21 -5 l-1 -28 -15
28 c-16 29 -27 37 -18 12 4 -10 0 -13 -16 -10 -12 2 -28 9 -35 15 -20 17 -123
29 -129 16 -3 -7 -8 -5 -15 4 -9 13 -11 12 -11 -3 0 -35 -25 -10 -25 26 -2 65
-13 50 -25 -37 -16 -103 -8 -295 16 -381 41 -154 110 -270 223 -378 170 -162
413 -236 926 -282 303 -27 351 -35 190 -29 -415 14 -725 68 -923 159 -40 19
-70 30 -67 26 11 -19 208 -144 315 -200 128 -67 368 -175 560 -253 145 -59
326 -148 388 -190 70 -48 42 -43 -44 8 -90 54 -160 86 -329 154 -528 211 -801
361 -989 541 -200 191 -292 385 -303 644 -11 259 63 482 238 714 255 340 776
570 1288 571 141 0 146 -7 38 -55 -118 -53 -546 -294 -567 -320 -19 -23 -4
-64 27 -71 21 -6 62 11 196 77 133 66 171 81 175 69 3 -8 18 -27 33 -42 39
-40 74 -36 185 20 77 38 96 52 101 73 4 22 32 40 189 119 180 92 185 94 219
81 35 -12 39 -11 244 99 l209 111 7 47 c3 26 13 77 21 114 l15 67 90 46 c72
37 92 52 103 79 13 31 38 55 59 56 5 0 17 -5 27 -10z m-505 -165 c32 -31 32
-59 -1 -91 -25 -26 -27 -26 -84 -8 -8 3 -40 -10 -70 -28 -52 -32 -55 -35 -61
-82 -3 -33 -11 -52 -24 -60 -11 -6 -62 -34 -115 -62 -94 -50 -95 -51 -102 -95
-11 -66 -72 -110 -131 -95 -92 23 -116 143 -38 189 35 21 78 22 111 2 14 -8
30 -17 37 -20 6 -4 59 19 116 51 110 60 117 69 117 140 0 18 14 30 70 60 57
29 70 41 70 60 0 29 33 64 60 64 12 0 32 -11 45 -25z m-800 -10 c31 -30 32
-62 3 -92 -25 -26 -65 -30 -94 -8 -26 20 -94 19 -257 -5 -779 -115 -1468 -610
-1802 -1295 -145 -299 -235 -634 -235 -879 0 -54 3 -66 25 -86 34 -32 34 -87
0 -124 -23 -25 -25 -35 -25 -118 0 -114 23 -269 62 -422 l30 -119 -21 -20 -20
-21 -11 30 c-41 106 -110 478 -110 591 0 34 -6 47 -36 77 -33 33 -36 41 -31
74 4 24 17 46 35 62 27 23 30 33 41 130 16 138 38 266 62 365 86 341 259 686
474 945 101 122 263 280 392 383 102 81 129 119 50 71 l-42 -25 30 26 c49 42
53 44 59 38 3 -4 6 1 6 9 0 10 9 16 25 16 13 0 22 -5 19 -10 -3 -5 -12 -7 -20
-4 -8 3 -14 -1 -14 -9 0 -19 4 -19 41 0 17 9 27 21 23 27 -4 7 -3 8 5 4 6 -4
23 1 39 12 47 34 262 138 382 185 231 91 436 139 707 166 71 8 96 14 112 30
28 28 66 26 96 -4z m-135 -248 c0 -10 -33 -17 -117 -26 -595 -61 -1165 -383
-1517 -856 -319 -428 -476 -959 -436 -1470 9 -117 42 -314 66 -402 4 -13 2
-23 -4 -23 -16 0 -61 206 -79 359 -71 613 166 1299 606 1754 357 370 869 618
1376 666 50 4 93 9 98 10 4 0 7 -5 7 -12z m-1135 -87 c-3 -5 -12 -10 -18 -10
-7 0 -6 4 3 10 19 12 23 12 15 0z m2585 -20 c24 -24 25 -29 4 -59 -13 -18 -23
-22 -48 -18 -24 4 -55 -8 -142 -54 -110 -58 -134 -67 -134 -51 0 9 202 124
227 130 7 2 13 14 13 27 0 43 48 57 80 25z m-72 -152 c16 -16 15 -53 -2 -68
-8 -6 -26 -10 -40 -8 -16 2 -55 -13 -100 -37 -41 -22 -78 -36 -83 -32 -10 11
17 31 89 65 31 15 57 32 57 37 1 6 8 21 17 33 17 24 43 29 62 10z m-286 -45
c23 -20 23 -55 1 -82 -26 -30 -320 -183 -345 -179 -11 2 -30 15 -41 29 -34 47
-12 69 163 164 85 46 166 84 179 85 14 0 33 -7 43 -17z m-1011 -43 c24 -13 26
-72 3 -94 -35 -36 -104 -7 -104 42 0 51 52 77 101 52z m1555 -62 c-4 -13 -9
-35 -12 -50 -6 -24 -36 -43 -228 -145 -469 -248 -489 -260 -503 -287 -16 -31
-49 -32 -67 -3 -16 25 4 51 45 58 30 5 197 90 594 302 113 60 120 66 128 101
7 26 14 36 24 32 8 -3 11 -1 8 4 -3 6 -1 10 6 10 7 0 9 -8 5 -22z m-4394 -213
c9 -21 9 -29 -4 -42 -24 -23 -68 -10 -68 20 0 49 52 64 72 22z m4487 -174
c103 -123 250 -354 232 -365 -5 -3 -24 20 -42 51 -55 98 -149 233 -215 309
-35 40 -64 76 -64 79 0 20 35 -9 89 -74z m877 -236 c588 -77 680 -475 224
-959 -66 -70 -270 -254 -347 -315 -34 -25 -43 -39 -43 -62 0 -17 -10 -98 -22
-181 l-21 -151 22 -41 c22 -40 22 -43 7 -80 -10 -25 -26 -41 -45 -49 -24 -9
-34 -24 -57 -81 -239 -619 -642 -1076 -1194 -1355 -218 -111 -420 -178 -670
-223 -239 -43 -815 -26 -917 27 -16 8 -43 18 -60 21 -18 3 -30 10 -27 15 3 5
0 9 -5 9 -6 0 -11 5 -11 11 0 13 182 1 191 -13 11 -17 193 -39 369 -45 374
-12 739 68 1079 238 181 90 296 163 436 276 199 161 364 341 498 543 83 126
201 362 242 483 l30 89 -22 18 c-12 9 -19 20 -16 24 4 3 2 6 -4 6 -11 0 -13
30 -3 40 3 3 12 19 20 35 9 17 30 39 47 50 26 17 33 31 46 95 20 92 40 220 35
225 -2 2 -42 -24 -89 -58 l-85 -62 -23 -110 c-28 -138 -88 -319 -152 -455 -61
-128 -177 -330 -190 -330 -6 0 -8 -4 -4 -9 3 -6 -5 -15 -17 -21 -22 -11 -22
-10 -4 4 11 9 16 16 10 16 -5 0 -2 6 6 13 8 7 16 18 17 24 2 7 21 41 43 77
110 181 212 436 269 676 12 47 21 88 21 92 0 4 -51 -26 -112 -66 -62 -41 -174
-111 -248 -155 -74 -44 -146 -90 -159 -101 -16 -14 -27 -18 -34 -11 -13 13 -1
41 17 41 19 0 182 97 382 226 l162 105 7 66 c10 99 26 123 18 29 -7 -90 -13
-89 82 -18 91 68 95 74 96 156 1 39 4 60 6 46 5 -28 34 -90 44 -90 15 0 215
176 319 280 336 338 416 628 224 810 -96 91 -240 141 -460 160 -65 6 -165 8
-221 4 -91 -6 -103 -5 -103 10 0 14 17 16 139 16 77 0 193 -7 257 -15z m-335
-372 c-8 -15 -10 -15 -11 -2 0 17 10 32 18 25 2 -3 -1 -13 -7 -23z m-3066
-1397 c71 -19 164 -68 210 -111 l40 -37 -40 29 c-22 16 -62 42 -89 56 -178 98
-438 82 -571 -35 -58 -51 -84 -105 -86 -178 -1 -47 -2 -51 -9 -26 -5 16 -5 49
0 77 21 111 108 190 247 223 75 18 234 19 298 2z m-1465 -65 c0 -5 -33 -33
-72 -63 -431 -325 -642 -681 -534 -902 121 -248 569 -330 1268 -233 9 1 17 -2
18 -8 2 -22 -322 -55 -540 -55 -471 1 -762 141 -795 385 -8 65 15 178 54 262
73 155 240 348 456 524 111 92 145 112 145 90z m366 -208 c9 -21 38 -82 66
-136 27 -54 48 -100 46 -103 -5 -5 -110 177 -131 228 -13 32 -13 48 0 48 2 0
11 -17 19 -37z m-142 -142 c24 -50 30 -68 16 -52 -22 26 -26 21 -8 -12 10 -19
9 -20 -4 -10 -8 7 -19 9 -23 5 -5 -4 -5 -1 -1 6 4 6 3 12 -2 12 -12 0 -34 49
-27 61 4 5 3 9 -2 9 -4 0 -13 11 -20 25 -6 14 -7 23 -2 19 5 -3 9 -1 9 4 0 5
6 9 14 9 7 0 30 -34 50 -76z m3414 -162 c-3 -8 -7 -3 -11 10 -4 17 -3 21 5 13
5 -5 8 -16 6 -23z m59 -11 c-3 -8 -6 -5 -6 6 -1 11 2 17 5 13 3 -3 4 -12 1
-19z m363 -78 c-6 -11 -13 -20 -16 -20 -2 0 0 9 6 20 6 11 13 20 16 20 2 0 0
-9 -6 -20z m-2882 -462 c-5 -16 -48 -24 -48 -10 0 11 17 20 38 21 8 1 12 -5
10 -11z m-354 -115 c16 -41 -44 -61 -64 -22 -17 30 13 63 41 46 10 -6 21 -17
23 -24z m416 13 c0 -3 -4 -8 -10 -11 -5 -3 -10 -1 -10 4 0 6 5 11 10 11 6 0
10 -2 10 -4z m-132 -31 c17 -13 26 -14 44 -4 l21 12 -21 -28 c-12 -15 -22 -34
-22 -42 0 -7 -11 -18 -25 -25 -34 -15 -75 12 -75 50 0 50 35 66 78 37z m92 11
c0 -3 -4 -8 -10 -11 -5 -3 -10 -1 -10 4 0 6 5 11 10 11 6 0 10 -2 10 -4z
m-210 -86 c0 -5 -26 -23 -57 -38 -54 -28 -57 -32 -77 -92 -12 -35 -27 -65 -33
-67 -15 -5 -12 12 15 92 20 58 23 61 79 87 65 30 73 32 73 18z m1421 -27 c-8
-15 -10 -15 -11 -2 0 17 10 32 18 25 2 -3 -1 -13 -7 -23z m-1727 -165 c32 -8
54 -9 79 -1 27 8 34 7 34 -3 0 -26 -58 -35 -115 -19 -70 21 -100 8 -123 -55
-13 -37 -25 -49 -65 -70 -40 -21 -50 -31 -55 -60 -9 -41 -32 -60 -74 -60 -54
0 -92 57 -74 110 18 52 76 66 120 31 24 -19 25 -19 69 3 37 18 46 27 54 59 6
27 18 44 40 58 36 22 50 23 110 7z m314 -154 c-26 -13 -48 -32 -51 -44 -4 -17
-12 -21 -39 -18 -26 2 -34 8 -36 26 -5 35 15 51 62 52 64 0 86 4 86 13 0 4 5
5 12 1 7 -4 -7 -16 -34 -30z m4842 -446 l0 -223 -21 35 c-12 18 -36 54 -55 78
-33 43 -34 48 -34 133 l0 89 -189 2 -190 3 62 52 62 52 183 0 182 1 0 -222z
m-5955 -133 l0 -60 -295 -2 c-287 -3 -295 -4 -312 -24 -25 -30 -23 -84 4 -109
21 -19 34 -20 241 -20 243 0 281 -6 332 -55 69 -64 73 -225 8 -297 -47 -53
-65 -55 -403 -59 l-315 -4 -3 58 -3 57 294 0 c283 0 295 1 321 21 21 17 26 29
26 68 0 87 6 85 -272 91 -263 5 -278 8 -332 67 -74 79 -52 254 37 300 58 30
81 31 377 30 l295 -2 0 -60z m432 -67 l133 -133 133 133 132 132 88 0 c48 0
87 -2 87 -4 0 -4 -116 -117 -253 -248 l-92 -87 179 -179 178 -180 -93 5 -94 5
-132 131 -133 132 -133 -133 -132 -132 -90 0 -90 1 178 173 177 173 -177 171
-178 171 90 1 90 0 132 -132z m1443 67 l0 -65 -165 0 -165 0 0 -280 0 -280
-65 0 -65 0 0 280 0 280 -160 0 -160 0 0 65 0 65 390 0 390 0 0 -65z m776 50
c48 -14 91 -48 112 -90 18 -36 24 -121 13 -180 -19 -103 -79 -153 -196 -164
l-60 -6 145 -109 c80 -60 149 -113 155 -118 5 -4 -35 -8 -90 -8 l-100 0 -150
120 -150 120 -72 0 -73 0 0 60 0 60 209 0 c254 0 254 0 252 99 -1 104 8 101
-273 101 l-238 0 0 -280 0 -280 -65 0 -65 0 0 345 0 345 298 0 c234 0 309 -3
348 -15z m1002 -47 l-3 -63 -275 -2 c-266 -3 -276 -4 -292 -24 -16 -19 -18
-45 -18 -204 0 -172 1 -183 21 -201 19 -17 44 -19 293 -24 208 -4 271 -8 270
-17 -1 -7 -2 -32 -3 -55 l-1 -43 -277 2 c-307 3 -340 8 -387 64 -42 50 -48 89
-44 304 3 189 4 202 26 238 23 36 60 62 112 78 14 4 150 8 303 8 l278 1 -3
-62z m619 40 c11 -13 56 -86 100 -163 77 -134 246 -435 272 -482 12 -23 11
-23 -61 -23 l-73 0 -30 58 c-49 94 -36 90 -243 84 -100 -3 -182 -2 -182 1 0 4
12 31 27 62 l27 54 127 3 126 3 -81 142 c-61 107 -83 139 -91 129 -5 -7 -77
-131 -160 -274 l-150 -262 -73 0 c-72 0 -73 0 -61 22 54 101 366 628 382 646
16 17 31 22 72 22 41 0 56 -5 72 -22z m635 2 c14 -11 77 -102 139 -202 172
-279 178 -288 186 -288 5 1 20 20 34 43 62 100 270 424 283 441 9 11 32 20 58
23 53 6 86 -16 96 -67 4 -19 6 -167 4 -327 l-4 -293 -64 0 -64 0 0 242 0 242
-78 -120 c-43 -65 -108 -167 -145 -225 -37 -59 -76 -114 -87 -124 -31 -28 -65
-12 -104 48 -18 28 -87 135 -152 237 l-119 185 -3 -242 -2 -243 -65 0 -65 0 0
316 0 316 29 29 c36 35 86 39 123 9z m-1272 -320 l0 -60 -234 0 c-204 0 -235
2 -240 16 -8 21 -8 89 1 97 3 4 111 7 240 7 l233 0 0 -60z m-1523 -634 c0 0
44 -80 96 -176 94 -171 95 -175 71 -178 -31 -4 -48 9 -64 48 l-12 30 -99 0
c-55 0 -99 3 -99 6 0 3 5 14 10 25 9 16 22 19 74 19 34 0 65 3 69 6 6 7 -68
147 -80 151 -5 2 -46 -62 -93 -142 -76 -132 -86 -145 -112 -145 -15 0 -28 2
-28 4 0 14 186 334 202 349 17 14 49 16 65 3z m706 -8 c49 -33 59 -148 17
-200 -17 -21 -28 -23 -162 -28 l-143 -5 -3 -57 c-3 -54 -5 -58 -27 -58 l-25 0
0 184 0 185 158 -2 c131 -2 162 -5 185 -19z m279 -168 l-3 -180 -24 0 -25 0 0
180 0 180 28 0 27 0 -3 -180z m3993 -1197 c23 -60 96 -133 157 -158 27 -11 48
-22 48 -25 0 -3 -21 -14 -48 -25 -60 -25 -132 -97 -157 -157 -11 -27 -22 -48
-25 -48 -3 0 -14 21 -25 48 -25 60 -97 132 -157 157 -27 11 -48 23 -48 26 0 4
21 14 47 24 60 23 133 96 158 157 11 27 23 48 26 48 4 0 14 -21 24 -47z"/>
<path d="M3665 7959 c-12 -19 5 -23 22 -6 16 16 16 17 1 17 -9 0 -20 -5 -23
-11z"/>
<path d="M3591 6954 c0 -11 3 -14 6 -6 3 7 2 16 -1 19 -3 4 -6 -2 -5 -13z"/>
<path d="M3780 6846 c0 -2 7 -6 15 -10 8 -3 15 -1 15 4 0 6 -7 10 -15 10 -8 0
-15 -2 -15 -4z"/>
<path d="M6264 6768 l-19 -23 23 19 c21 18 27 26 19 26 -2 0 -12 -10 -23 -22z"/>
<path d="M4100 6667 c0 -2 9 -30 20 -62 66 -193 231 -312 530 -386 63 -16 221
-45 350 -64 635 -98 920 -182 1144 -339 93 -65 104 -71 61 -31 -175 161 -431
306 -880 499 -173 74 -223 92 -234 83 -8 -7 -17 -11 -20 -9 -3 2 -7 -2 -9 -8
-3 -9 1 -9 16 -1 11 6 29 11 39 11 23 -1 -54 -40 -78 -40 -10 0 -20 -4 -23 -9
-4 -5 -24 -12 -47 -16 -27 -5 -39 -11 -35 -20 3 -8 -2 -11 -15 -8 -10 3 -31
-2 -45 -12 -17 -11 -29 -13 -38 -6 -6 5 -18 6 -25 2 -9 -6 -5 -10 14 -15 15
-4 25 -9 22 -12 -13 -13 -276 86 -362 137 -37 21 -78 42 -91 45 -13 3 -28 12
-35 20 -6 8 -17 14 -25 14 -7 0 -20 10 -30 23 -12 16 -15 17 -10 4 5 -15 2
-17 -14 -12 -16 5 -19 3 -13 -11 4 -12 3 -15 -6 -10 -6 4 -9 15 -7 24 3 10 1
24 -4 32 -5 8 -10 11 -10 6 0 -4 -9 2 -20 15 -11 14 -19 18 -20 11 0 -7 -4
-11 -10 -7 -5 3 -7 12 -3 20 3 8 0 15 -7 15 -7 0 -10 7 -6 15 3 9 0 15 -8 15
-8 0 -23 20 -35 45 -18 38 -31 56 -31 42z m225 -237 c3 -5 2 -10 -4 -10 -5 0
-13 5 -16 10 -3 6 -2 10 4 10 5 0 13 -4 16 -10z m825 -98 c0 -4 -10 -9 -22 -9
-18 -2 -20 0 -8 7 18 12 30 13 30 2z"/>
<path d="M5067 6389 c7 -7 15 -10 18 -7 3 3 -2 9 -12 12 -14 6 -15 5 -6 -5z"/>
<path d="M4250 6371 c0 -14 130 -122 212 -177 106 -71 288 -157 566 -269 324
-129 407 -169 540 -258 148 -98 249 -202 303 -311 l42 -86 111 59 c125 67 332
180 361 197 18 11 17 13 -3 46 -34 55 -161 172 -252 230 -230 149 -512 232
-1091 323 -463 73 -613 118 -751 227 -21 16 -38 25 -38 19z"/>
<path d="M6341 4574 c0 -11 3 -14 6 -6 3 7 2 16 -1 19 -3 4 -6 -2 -5 -13z"/>
<path d="M6254 4398 l-19 -23 23 19 c12 11 22 21 22 23 0 8 -8 2 -26 -19z"/>
<path d="M3458 3733 c7 -3 16 -2 19 1 4 3 -2 6 -13 5 -11 0 -14 -3 -6 -6z"/>
<path d="M5140 2000 l0 -70 130 0 c118 0 130 2 140 19 16 31 12 79 -10 101
-18 18 -33 20 -140 20 l-120 0 0 -70z"/>
</g>
</svg>
