<?xml version="1.0" encoding="UTF-8"?>
<!DOCTYPE svg PUBLIC "-//W3C//DTD SVG 1.1//EN" "http://www.w3.org/Graphics/SVG/1.1/DTD/svg11.dtd">
<svg xmlns="http://www.w3.org/2000/svg" version="1.1" width="225px" height="180px" style="shape-rendering:geometricPrecision; text-rendering:geometricPrecision; image-rendering:optimizeQuality; fill-rule:evenodd; clip-rule:evenodd" xmlns:xlink="http://www.w3.org/1999/xlink">
<g><path style="opacity:1" fill="#7e7f5c" d="M 20.5,-0.5 C 25.1667,-0.5 29.8333,-0.5 34.5,-0.5C 36.1859,2.5367 35.1859,3.87003 31.5,3.5C 30.8101,7.92521 31.8101,11.7585 34.5,15C 33.552,15.4828 32.552,15.6495 31.5,15.5C 31.5,17.8333 31.5,20.1667 31.5,22.5C 31.5,22.8333 31.5,23.1667 31.5,23.5C 27.7307,23.244 24.0641,23.5773 20.5,24.5C 20.5,16.1667 20.5,7.83333 20.5,-0.5 Z"/></g>
<g><path style="opacity:1" fill="#e0de24" d="M 63.5,-0.5 C 74.1667,-0.5 84.8333,-0.5 95.5,-0.5C 95.5,4.83333 95.5,10.1667 95.5,15.5C 98.1667,15.5 100.833,15.5 103.5,15.5C 103.5,18.1667 103.5,20.8333 103.5,23.5C 100.833,23.5 98.1667,23.5 95.5,23.5C 95.5,26.8333 95.5,30.1667 95.5,33.5C 106.299,33.1894 116.966,34.1894 127.5,36.5C 127.5,35.5 127.5,34.5 127.5,33.5C 130.187,33.3359 132.854,33.5026 135.5,34C 135.957,34.414 136.291,34.914 136.5,35.5C 135.271,36.2811 133.938,36.7811 132.5,37C 133.737,37.2321 134.737,37.7321 135.5,38.5C 131.534,37.8379 127.534,37.5045 123.5,37.5C 113.985,37.1731 104.652,37.5064 95.5,38.5C 91.7144,38.32 88.381,39.32 85.5,41.5C 83.1016,41.2594 81.1016,41.9261 79.5,43.5C 78.209,43.2627 77.209,43.596 76.5,44.5C 73.5176,44.9629 70.5176,45.2962 67.5,45.5C 66.7659,44.2921 66.4326,42.9587 66.5,41.5C 65.5,41.5 64.5,41.5 63.5,41.5C 63.5,42.5 63.5,43.5 63.5,44.5C 61.0712,44.585 59.0712,45.585 57.5,47.5C 56.7691,45.5988 56.7691,43.5988 57.5,41.5C 55.5,41.5 53.5,41.5 51.5,41.5C 52.2161,37.7996 53.5494,34.4662 55.5,31.5C 46.4021,29.883 37.2354,28.5497 28,27.5C 26.3189,27.3917 25.1522,26.7251 24.5,25.5C 27.0673,25.2785 29.4006,24.6118 31.5,23.5C 38.9679,22.8147 46.3012,21.4814 53.5,19.5C 52.675,18.6143 51.675,18.281 50.5,18.5C 50.5,17.5 50.5,16.5 50.5,15.5C 49.5,15.5 48.5,15.5 47.5,15.5C 46.9709,11.9666 44.9709,9.63325 41.5,8.5C 39.8958,7.71304 39.2291,6.3797 39.5,4.5C 47.4827,3.83448 55.4827,3.50115 63.5,3.5C 63.5,2.16667 63.5,0.833333 63.5,-0.5 Z"/></g>
<g><path style="opacity:1" fill="#e0df20" d="M 95.5,-0.5 C 116.833,-0.5 138.167,-0.5 159.5,-0.5C 159.5,1.16667 159.5,2.83333 159.5,4.5C 165.827,4.13364 172.16,3.80031 178.5,3.5C 182.239,3.51362 185.572,4.18028 188.5,5.5C 180.635,8.25661 172.635,10.5899 164.5,12.5C 164.5,13.5 164.5,14.5 164.5,15.5C 165.5,15.5 166.5,15.5 167.5,15.5C 167.953,16.4584 168.619,17.2917 169.5,18C 172.376,18.4379 175.043,19.4379 177.5,21C 171.957,22.1643 166.29,22.9977 160.5,23.5C 160.167,24 159.833,24.5 159.5,25C 161.449,27.1465 163.115,29.4799 164.5,32C 163.663,33.0113 163.33,34.1779 163.5,35.5C 160.833,34.8333 158.167,34.1667 155.5,33.5C 155.5,34.5 155.5,35.5 155.5,36.5C 156.833,36.5 158.167,36.5 159.5,36.5C 159.5,37.8333 159.5,39.1667 159.5,40.5C 158.5,40.5 157.5,40.5 156.5,40.5C 155.029,38.9685 153.196,37.9685 151,37.5C 148.169,37.6699 147.669,38.8366 149.5,41C 149.164,42.0299 148.497,42.5299 147.5,42.5C 145.901,42.7678 144.568,42.4345 143.5,41.5C 140.919,40.5115 138.252,39.5115 135.5,38.5C 134.737,37.7321 133.737,37.2321 132.5,37C 133.938,36.7811 135.271,36.2811 136.5,35.5C 136.291,34.914 135.957,34.414 135.5,34C 132.854,33.5026 130.187,33.3359 127.5,33.5C 127.5,34.5 127.5,35.5 127.5,36.5C 116.966,34.1894 106.299,33.1894 95.5,33.5C 95.5,30.1667 95.5,26.8333 95.5,23.5C 98.1667,23.5 100.833,23.5 103.5,23.5C 103.5,20.8333 103.5,18.1667 103.5,15.5C 100.833,15.5 98.1667,15.5 95.5,15.5C 95.5,10.1667 95.5,4.83333 95.5,-0.5 Z"/></g>
<g><path style="opacity:1" fill="#939c53" d="M 170.5,-0.5 C 177.5,-0.5 184.5,-0.5 191.5,-0.5C 191.5,0.166667 191.5,0.833333 191.5,1.5C 184.087,2.12787 177.087,1.4612 170.5,-0.5 Z"/></g>
<g><path style="opacity:1" fill="#d2c532" d="M 159.5,-0.5 C 163.167,-0.5 166.833,-0.5 170.5,-0.5C 177.087,1.4612 184.087,2.12787 191.5,1.5C 193.099,1.23219 194.432,1.56552 195.5,2.5C 193.964,5.09219 191.631,6.09219 188.5,5.5C 185.572,4.18028 182.239,3.51362 178.5,3.5C 172.16,3.80031 165.827,4.13364 159.5,4.5C 159.5,2.83333 159.5,1.16667 159.5,-0.5 Z"/></g>
<g><path style="opacity:1" fill="#b3be93" d="M -0.5,-0.5 C 6.5,-0.5 13.5,-0.5 20.5,-0.5C 20.5,7.83333 20.5,16.1667 20.5,24.5C 19.9423,25.7899 18.9423,26.6232 17.5,27C 19.1918,28.3073 20.5251,29.8073 21.5,31.5C 21.5,58.1667 21.5,84.8333 21.5,111.5C 21.5,119.5 21.5,127.5 21.5,135.5C 20.5148,132.943 19.5148,130.276 18.5,127.5C 17.3372,132.802 17.1705,138.136 18,143.5C 18.828,132.864 19.328,132.864 19.5,143.5C 19.1369,148.953 18.1369,154.286 16.5,159.5C 15.6681,150.852 15.1681,142.186 15,133.5C 13.3409,132.183 12.1743,130.517 11.5,128.5C 10.675,127.614 9.67504,127.281 8.5,127.5C 8.16667,116.833 7.83333,116.833 7.5,127.5C 4.83333,127.5 2.16667,127.5 -0.5,127.5C -0.5,84.8333 -0.5,42.1667 -0.5,-0.5 Z"/></g>
<g><path style="opacity:1" fill="#c2a12b" d="M 41.5,8.5 C 44.9709,9.63325 46.9709,11.9666 47.5,15.5C 43.8997,14.6802 41.8997,12.3469 41.5,8.5 Z"/></g>
<g><path style="opacity:1" fill="#cb992d" d="M 195.5,2.5 C 196.289,2.78281 196.956,3.28281 197.5,4C 195.336,5.49075 193.336,6.99075 191.5,8.5C 187.454,12.2169 183.454,15.8835 179.5,19.5C 175.597,17.9768 171.597,16.6435 167.5,15.5C 166.5,15.5 165.5,15.5 164.5,15.5C 164.5,14.5 164.5,13.5 164.5,12.5C 172.635,10.5899 180.635,8.25661 188.5,5.5C 191.631,6.09219 193.964,5.09219 195.5,2.5 Z"/></g>
<g><path style="opacity:1" fill="#a7b184" d="M 34.5,-0.5 C 43.1667,-0.5 51.8333,-0.5 60.5,-0.5C 60.5,0.5 60.5,1.5 60.5,2.5C 52.712,2.07503 45.0453,2.7417 37.5,4.5C 37.1667,4.83333 36.8333,5.16667 36.5,5.5C 39.5311,9.56871 42.1978,13.902 44.5,18.5C 43.91,19.7989 42.91,20.6322 41.5,21C 38.1464,21.4552 34.8131,21.9552 31.5,22.5C 31.5,20.1667 31.5,17.8333 31.5,15.5C 32.552,15.6495 33.552,15.4828 34.5,15C 31.8101,11.7585 30.8101,7.92521 31.5,3.5C 35.1859,3.87003 36.1859,2.5367 34.5,-0.5 Z"/></g>
<g><path style="opacity:1" fill="#97902c" d="M 60.5,-0.5 C 61.5,-0.5 62.5,-0.5 63.5,-0.5C 63.5,0.833333 63.5,2.16667 63.5,3.5C 55.4827,3.50115 47.4827,3.83448 39.5,4.5C 39.2291,6.3797 39.8958,7.71304 41.5,8.5C 41.8997,12.3469 43.8997,14.6802 47.5,15.5C 48.5,15.5 49.5,15.5 50.5,15.5C 50.5,16.5 50.5,17.5 50.5,18.5C 51.675,18.281 52.675,18.6143 53.5,19.5C 46.3012,21.4814 38.9679,22.8147 31.5,23.5C 31.5,23.1667 31.5,22.8333 31.5,22.5C 34.8131,21.9552 38.1464,21.4552 41.5,21C 42.91,20.6322 43.91,19.7989 44.5,18.5C 42.1978,13.902 39.5311,9.56871 36.5,5.5C 36.8333,5.16667 37.1667,4.83333 37.5,4.5C 45.0453,2.7417 52.712,2.07503 60.5,2.5C 60.5,1.5 60.5,0.5 60.5,-0.5 Z"/></g>
<g><path style="opacity:1" fill="#94a076" d="M 191.5,-0.5 C 195.5,-0.5 199.5,-0.5 203.5,-0.5C 203.828,10.0135 203.494,20.3468 202.5,30.5C 196.572,25.8471 189.906,22.5137 182.5,20.5C 186.319,17.0283 189.319,13.0283 191.5,8.5C 193.336,6.99075 195.336,5.49075 197.5,4C 196.956,3.28281 196.289,2.78281 195.5,2.5C 194.432,1.56552 193.099,1.23219 191.5,1.5C 191.5,0.833333 191.5,0.166667 191.5,-0.5 Z"/></g>
<g><path style="opacity:1" fill="#e1cd2e" d="M 167.5,15.5 C 171.597,16.6435 175.597,17.9768 179.5,19.5C 179.937,21.0744 180.937,22.2411 182.5,23C 185.65,24.0356 188.65,25.2023 191.5,26.5C 191.631,27.3764 191.298,28.0431 190.5,28.5C 184.41,27.1012 178.41,25.6012 172.5,24C 169.446,23.1786 166.446,23.3452 163.5,24.5C 164.749,28.0861 166.082,31.5861 167.5,35C 166.617,37.906 164.617,39.0727 161.5,38.5C 161.26,43.0942 159.593,43.7609 156.5,40.5C 157.5,40.5 158.5,40.5 159.5,40.5C 159.5,39.1667 159.5,37.8333 159.5,36.5C 158.167,36.5 156.833,36.5 155.5,36.5C 155.5,35.5 155.5,34.5 155.5,33.5C 158.167,34.1667 160.833,34.8333 163.5,35.5C 163.33,34.1779 163.663,33.0113 164.5,32C 163.115,29.4799 161.449,27.1465 159.5,25C 159.833,24.5 160.167,24 160.5,23.5C 166.29,22.9977 171.957,22.1643 177.5,21C 175.043,19.4379 172.376,18.4379 169.5,18C 168.619,17.2917 167.953,16.4584 167.5,15.5 Z"/></g>
<g><path style="opacity:1" fill="#8f8a3e" d="M 191.5,8.5 C 189.319,13.0283 186.319,17.0283 182.5,20.5C 189.906,22.5137 196.572,25.8471 202.5,30.5C 202.5,30.8333 202.5,31.1667 202.5,31.5C 201.833,31.5 201.167,31.5 200.5,31.5C 197.992,29.0764 194.992,27.4097 191.5,26.5C 188.65,25.2023 185.65,24.0356 182.5,23C 180.937,22.2411 179.937,21.0744 179.5,19.5C 183.454,15.8835 187.454,12.2169 191.5,8.5 Z"/></g>
<g><path style="opacity:1" fill="#cda229" d="M 191.5,26.5 C 194.992,27.4097 197.992,29.0764 200.5,31.5C 190.779,29.9305 181.112,27.9305 171.5,25.5C 167.086,24.9033 165.753,26.5699 167.5,30.5C 168.325,31.3857 169.325,31.719 170.5,31.5C 170.5,34.1667 170.5,36.8333 170.5,39.5C 165.832,39.1401 163.165,41.1401 162.5,45.5C 161.07,45.5792 159.736,45.2458 158.5,44.5C 157.735,45.6119 156.735,46.2786 155.5,46.5C 152.743,45.4878 150.076,44.4878 147.5,43.5C 147.5,43.1667 147.5,42.8333 147.5,42.5C 148.497,42.5299 149.164,42.0299 149.5,41C 147.669,38.8366 148.169,37.6699 151,37.5C 153.196,37.9685 155.029,38.9685 156.5,40.5C 159.593,43.7609 161.26,43.0942 161.5,38.5C 164.617,39.0727 166.617,37.906 167.5,35C 166.082,31.5861 164.749,28.0861 163.5,24.5C 166.446,23.3452 169.446,23.1786 172.5,24C 178.41,25.6012 184.41,27.1012 190.5,28.5C 191.298,28.0431 191.631,27.3764 191.5,26.5 Z"/></g>
<g><path style="opacity:1" fill="#87783d" d="M 31.5,23.5 C 29.4006,24.6118 27.0673,25.2785 24.5,25.5C 21.9029,25.5332 20.9029,26.5332 21.5,28.5C 24.3609,30.98 27.6942,31.98 31.5,31.5C 31.5,32.5 31.5,33.5 31.5,34.5C 33.0764,35.1429 34.4097,36.1429 35.5,37.5C 34.4168,37.4606 33.4168,37.1272 32.5,36.5C 31.7025,36.9569 31.3691,37.6236 31.5,38.5C 29.2981,37.2076 27.6315,35.3743 26.5,33C 24.9751,31.9914 23.3084,31.4914 21.5,31.5C 20.5251,29.8073 19.1918,28.3073 17.5,27C 18.9423,26.6232 19.9423,25.7899 20.5,24.5C 24.0641,23.5773 27.7307,23.244 31.5,23.5 Z"/></g>
<g><path style="opacity:1" fill="#d1992b" d="M 24.5,25.5 C 25.1522,26.7251 26.3189,27.3917 28,27.5C 37.2354,28.5497 46.4021,29.883 55.5,31.5C 53.5494,34.4662 52.2161,37.7996 51.5,41.5C 53.5,41.5 55.5,41.5 57.5,41.5C 56.7691,43.5988 56.7691,45.5988 57.5,47.5C 59.0712,45.585 61.0712,44.585 63.5,44.5C 63.5,43.5 63.5,42.5 63.5,41.5C 64.5,41.5 65.5,41.5 66.5,41.5C 66.4326,42.9587 66.7659,44.2921 67.5,45.5C 64.8503,46.247 62.1836,47.247 59.5,48.5C 58.6906,50.0709 58.3573,51.7376 58.5,53.5C 56.2546,51.6386 53.5879,50.6386 50.5,50.5C 51.2166,53.3229 52.2166,55.9896 53.5,58.5C 52.5,58.5 51.5,58.5 50.5,58.5C 50.5,57.5 50.5,56.5 50.5,55.5C 48.5,55.1667 46.5,54.8333 44.5,54.5C 44.3491,58.314 42.3491,59.9807 38.5,59.5C 38.0228,55.1338 39.8561,52.1338 44,50.5C 44.4828,49.552 44.6495,48.552 44.5,47.5C 46.143,47.4802 47.4763,48.1468 48.5,49.5C 49.8415,47.9951 51.5082,47.3285 53.5,47.5C 53.5,46.5 53.5,45.5 53.5,44.5C 51.5,44.5 49.5,44.5 47.5,44.5C 47.5079,41.4552 47.8413,38.4552 48.5,35.5C 47.1667,35.5 45.8333,35.5 44.5,35.5C 44.5,36.5 44.5,37.5 44.5,38.5C 39.8216,37.9777 35.4882,36.6444 31.5,34.5C 31.5,33.5 31.5,32.5 31.5,31.5C 27.6942,31.98 24.3609,30.98 21.5,28.5C 20.9029,26.5332 21.9029,25.5332 24.5,25.5 Z"/></g>
<g><path style="opacity:1" fill="#abc142" d="M 123.5,37.5 C 127.534,37.5045 131.534,37.8379 135.5,38.5C 138.252,39.5115 140.919,40.5115 143.5,41.5C 138.263,40.2026 132.93,39.5359 127.5,39.5C 126.167,38.8333 124.833,38.1667 123.5,37.5 Z"/></g>
<g><path style="opacity:1" fill="#6f7741" d="M 95.5,38.5 C 92.4172,40.0246 89.0839,41.0246 85.5,41.5C 88.381,39.32 91.7144,38.32 95.5,38.5 Z"/></g>
<g><path style="opacity:1" fill="#243f4f" d="M 123.5,37.5 C 124.833,38.1667 126.167,38.8333 127.5,39.5C 118.75,39.0901 110.084,39.5901 101.5,41C 102.094,41.4643 102.761,41.631 103.5,41.5C 103.5,41.8333 103.5,42.1667 103.5,42.5C 98.7807,42.8885 94.114,43.5551 89.5,44.5C 89.5299,43.5028 89.0299,42.8361 88,42.5C 84.315,44.0703 80.4816,45.0703 76.5,45.5C 76.5,45.1667 76.5,44.8333 76.5,44.5C 77.209,43.596 78.209,43.2627 79.5,43.5C 81.7857,43.405 83.7857,42.7384 85.5,41.5C 89.0839,41.0246 92.4172,40.0246 95.5,38.5C 104.652,37.5064 113.985,37.1731 123.5,37.5 Z"/></g>
<g><path style="opacity:1" fill="#3b5b3a" d="M 127.5,39.5 C 132.93,39.5359 138.263,40.2026 143.5,41.5C 144.568,42.4345 145.901,42.7678 147.5,42.5C 147.5,42.8333 147.5,43.1667 147.5,43.5C 144.482,43.6646 141.482,43.498 138.5,43C 134.898,41.2428 131.232,40.0761 127.5,39.5 Z"/></g>
<g><path style="opacity:1" fill="#a0a980" d="M 35.5,37.5 C 37.5921,39.1695 39.5921,40.8362 41.5,42.5C 38.1667,43.1667 34.8333,43.8333 31.5,44.5C 31.5,42.5 31.5,40.5 31.5,38.5C 31.3691,37.6236 31.7025,36.9569 32.5,36.5C 33.4168,37.1272 34.4168,37.4606 35.5,37.5 Z"/></g>
<g><path style="opacity:1" fill="#32541b" d="M 85.5,41.5 C 83.7857,42.7384 81.7857,43.405 79.5,43.5C 81.1016,41.9261 83.1016,41.2594 85.5,41.5 Z"/></g>
<g><path style="opacity:1" fill="#23407b" d="M 89.5,44.5 C 88.5084,44.3284 87.8417,44.6618 87.5,45.5C 86.5,45.5 85.5,45.5 84.5,45.5C 82.419,46.9902 80.0857,47.9902 77.5,48.5C 75.8008,48.6602 74.1341,48.4935 72.5,48C 73.9423,47.6232 74.9423,46.7899 75.5,45.5C 75.8333,45.5 76.1667,45.5 76.5,45.5C 80.4816,45.0703 84.315,44.0703 88,42.5C 89.0299,42.8361 89.5299,43.5028 89.5,44.5 Z"/></g>
<g><path style="opacity:1" fill="#d2952f" d="M 200.5,31.5 C 201.167,31.5 201.833,31.5 202.5,31.5C 203.773,32.0768 203.773,32.7435 202.5,33.5C 198.185,35.1375 194.519,37.4708 191.5,40.5C 188.404,41.5467 185.404,42.88 182.5,44.5C 181.914,44.2907 181.414,43.9574 181,43.5C 180.805,44.8193 180.972,46.1526 181.5,47.5C 182.466,51.4066 183.799,55.0733 185.5,58.5C 182.167,58.5 178.833,58.5 175.5,58.5C 174.26,55.5876 172.26,53.2543 169.5,51.5C 166.136,50.1084 162.803,48.7751 159.5,47.5C 157.901,47.7678 156.568,47.4345 155.5,46.5C 156.735,46.2786 157.735,45.6119 158.5,44.5C 159.736,45.2458 161.07,45.5792 162.5,45.5C 163.165,41.1401 165.832,39.1401 170.5,39.5C 170.5,36.8333 170.5,34.1667 170.5,31.5C 169.325,31.719 168.325,31.3857 167.5,30.5C 165.753,26.5699 167.086,24.9033 171.5,25.5C 181.112,27.9305 190.779,29.9305 200.5,31.5 Z"/></g>
<g><path style="opacity:1" fill="#836c29" d="M 191.5,40.5 C 189.162,42.8249 186.495,44.8249 183.5,46.5C 184.788,48.7388 185.788,51.0721 186.5,53.5C 184.357,51.8693 182.69,49.8693 181.5,47.5C 180.972,46.1526 180.805,44.8193 181,43.5C 181.414,43.9574 181.914,44.2907 182.5,44.5C 185.404,42.88 188.404,41.5467 191.5,40.5 Z"/></g>
<g><path style="opacity:1" fill="#f0f1ef" d="M 103.5,42.5 C 105.527,42.3379 107.527,42.5045 109.5,43C 106.5,43.3333 103.5,43.6667 100.5,44C 99.6919,44.3076 99.0253,44.8076 98.5,45.5C 95.6838,52.9143 94.0171,60.581 93.5,68.5C 89.9621,68.7847 88.1288,67.118 88,63.5C 86.9552,59.3683 86.1218,55.2017 85.5,51C 85.6975,48.8794 86.3642,47.0461 87.5,45.5C 87.8417,44.6618 88.5084,44.3284 89.5,44.5C 94.114,43.5551 98.7807,42.8885 103.5,42.5 Z"/></g>
<g><path style="opacity:1" fill="#b2b8c1" d="M 103.5,42.5 C 103.5,42.1667 103.5,41.8333 103.5,41.5C 116.589,40.5523 129.256,42.219 141.5,46.5C 142.527,50.446 142.694,54.446 142,58.5C 142.066,54.5649 140.233,52.7316 136.5,53C 135.189,56.3539 134.356,59.8539 134,63.5C 133.378,65.7314 132.211,67.5648 130.5,69C 113.517,68.894 96.6834,70.394 80,73.5C 78.1999,72.6216 76.3666,71.955 74.5,71.5C 73.5489,70.0813 73.2155,68.4147 73.5,66.5C 75.5,66.5 77.5,66.5 79.5,66.5C 79.5,64.8333 79.5,63.1667 79.5,61.5C 76.8333,61.5 74.1667,61.5 71.5,61.5C 71.5,59.8333 71.5,58.1667 71.5,56.5C 73.5466,56.5111 75.5466,56.8444 77.5,57.5C 78.6473,57.1822 79.4806,56.5156 80,55.5C 80.3333,58.1667 80.6667,60.8333 81,63.5C 81.4197,57.3072 82.5864,51.3072 84.5,45.5C 85.5,45.5 86.5,45.5 87.5,45.5C 86.3642,47.0461 85.6975,48.8794 85.5,51C 86.1218,55.2017 86.9552,59.3683 88,63.5C 88.1288,67.118 89.9621,68.7847 93.5,68.5C 94.0171,60.581 95.6838,52.9143 98.5,45.5C 99.0253,44.8076 99.6919,44.3076 100.5,44C 103.5,43.6667 106.5,43.3333 109.5,43C 107.527,42.5045 105.527,42.3379 103.5,42.5 Z"/></g>
<g><path style="opacity:1" fill="#2a3d54" d="M 75.5,45.5 C 74.9423,46.7899 73.9423,47.6232 72.5,48C 74.1341,48.4935 75.8008,48.6602 77.5,48.5C 76.0351,49.7368 74.3684,50.7368 72.5,51.5C 72.189,50.5222 71.5223,49.8555 70.5,49.5C 68.2534,50.3742 65.9201,50.7076 63.5,50.5C 67.0019,47.9403 71.0019,46.2736 75.5,45.5 Z"/></g>
<g><path style="opacity:1" fill="#a1854d" d="M 159.5,47.5 C 162.803,48.7751 166.136,50.1084 169.5,51.5C 169.833,52.8333 170.167,54.1667 170.5,55.5C 167.349,52.7542 163.683,50.7542 159.5,49.5C 159.5,48.8333 159.5,48.1667 159.5,47.5 Z"/></g>
<g><path style="opacity:1" fill="#ba913a" d="M 76.5,44.5 C 76.5,44.8333 76.5,45.1667 76.5,45.5C 76.1667,45.5 75.8333,45.5 75.5,45.5C 71.0019,46.2736 67.0019,47.9403 63.5,50.5C 62.078,51.925 60.4113,52.925 58.5,53.5C 58.3573,51.7376 58.6906,50.0709 59.5,48.5C 62.1836,47.247 64.8503,46.247 67.5,45.5C 70.5176,45.2962 73.5176,44.9629 76.5,44.5 Z"/></g>
<g><path style="opacity:1" fill="#9fa47f" d="M 36.5,47.5 C 37.1667,47.5 37.8333,47.5 38.5,47.5C 37.7851,51.4852 35.4518,54.8186 31.5,57.5C 31.3359,54.8127 31.5026,52.146 32,49.5C 33.049,47.8934 34.549,47.2267 36.5,47.5 Z"/></g>
<g><path style="opacity:1" fill="#c89336" d="M 31.5,34.5 C 35.4882,36.6444 39.8216,37.9777 44.5,38.5C 44.5,37.5 44.5,36.5 44.5,35.5C 45.8333,35.5 47.1667,35.5 48.5,35.5C 47.8413,38.4552 47.5079,41.4552 47.5,44.5C 49.5,44.5 51.5,44.5 53.5,44.5C 53.5,45.5 53.5,46.5 53.5,47.5C 51.5082,47.3285 49.8415,47.9951 48.5,49.5C 47.4763,48.1468 46.143,47.4802 44.5,47.5C 44.6495,48.552 44.4828,49.552 44,50.5C 39.8561,52.1338 38.0228,55.1338 38.5,59.5C 42.3491,59.9807 44.3491,58.314 44.5,54.5C 46.5,54.8333 48.5,55.1667 50.5,55.5C 50.5,56.5 50.5,57.5 50.5,58.5C 51.5,58.5 52.5,58.5 53.5,58.5C 52.2166,55.9896 51.2166,53.3229 50.5,50.5C 53.5879,50.6386 56.2546,51.6386 58.5,53.5C 56.1829,57.1464 53.5162,60.4797 50.5,63.5C 49.0689,63.8807 48.2355,64.8807 48,66.5C 47.5065,64.8659 47.3398,63.1992 47.5,61.5C 44.2727,61.6761 41.2727,62.3428 38.5,63.5C 36.1667,63.5 33.8333,63.5 31.5,63.5C 31.3433,62.1266 31.51,60.7932 32,59.5C 35.627,56.0377 39.127,52.371 42.5,48.5C 41.3112,47.5713 39.9778,47.238 38.5,47.5C 37.8333,47.5 37.1667,47.5 36.5,47.5C 36.369,46.7611 36.5357,46.0944 37,45.5C 38.6516,44.6006 40.1516,43.6006 41.5,42.5C 39.5921,40.8362 37.5921,39.1695 35.5,37.5C 34.4097,36.1429 33.0764,35.1429 31.5,34.5 Z"/></g>
<g><path style="opacity:1" fill="#58606a" d="M 118.5,44.5 C 119.5,44.5 120.5,44.5 121.5,44.5C 121.67,45.8221 121.337,46.9887 120.5,48C 116.53,47.6743 112.53,47.6743 108.5,48C 103.845,50.8966 102.345,55.0633 104,60.5C 108.792,65.7562 113.458,65.7562 118,60.5C 118.93,54.3169 116.43,51.9836 110.5,53.5C 107.734,55.8581 108.067,57.5248 111.5,58.5C 112.672,58.0814 113.672,57.4147 114.5,56.5C 115.594,57.868 115.26,59.0347 113.5,60C 111.833,60.6667 110.167,60.6667 108.5,60C 107.427,56.8876 107.427,53.7209 108.5,50.5C 113.855,49.3453 118.022,51.012 121,55.5C 122.436,62.735 119.436,66.4016 112,66.5C 106.808,66.0257 101.641,65.359 96.5,64.5C 99.5222,59.5817 101.856,54.4151 103.5,49C 105.116,48.3848 106.449,47.3848 107.5,46C 111.356,45.8227 115.023,45.3227 118.5,44.5 Z"/></g>
<g><path style="opacity:1" fill="#c4933d" d="M 181.5,47.5 C 182.69,49.8693 184.357,51.8693 186.5,53.5C 186.5,54.1667 186.5,54.8333 186.5,55.5C 187.323,57.4546 187.49,59.4546 187,61.5C 183.636,60.2607 180.136,59.5941 176.5,59.5C 177.345,62.8264 177.845,66.1597 178,69.5C 176.612,70.5536 175.112,70.7203 173.5,70C 171.911,65.9605 170.911,61.7938 170.5,57.5C 170.5,56.8333 170.5,56.1667 170.5,55.5C 170.167,54.1667 169.833,52.8333 169.5,51.5C 172.26,53.2543 174.26,55.5876 175.5,58.5C 178.833,58.5 182.167,58.5 185.5,58.5C 183.799,55.0733 182.466,51.4066 181.5,47.5 Z"/></g>
<g><path style="opacity:1" fill="#77774d" d="M 203.5,-0.5 C 207.5,-0.5 211.5,-0.5 215.5,-0.5C 215.5,59.5 215.5,119.5 215.5,179.5C 211.167,179.5 206.833,179.5 202.5,179.5C 202.5,167.5 202.5,155.5 202.5,143.5C 202.631,107.592 203.298,71.7588 204.5,36C 203.167,35.3333 201.833,35.3333 200.5,36C 197.757,38.0383 194.757,39.5383 191.5,40.5C 194.519,37.4708 198.185,35.1375 202.5,33.5C 203.773,32.7435 203.773,32.0768 202.5,31.5C 202.5,31.1667 202.5,30.8333 202.5,30.5C 203.494,20.3468 203.828,10.0135 203.5,-0.5 Z"/></g>
<g><path style="opacity:1" fill="#796d41" d="M 38.5,47.5 C 39.9778,47.238 41.3112,47.5713 42.5,48.5C 39.127,52.371 35.627,56.0377 32,59.5C 31.51,60.7932 31.3433,62.1266 31.5,63.5C 33.8333,63.5 36.1667,63.5 38.5,63.5C 39.1667,63.5 39.8333,63.5 40.5,63.5C 37.6553,64.3438 34.6553,65.0104 31.5,65.5C 30.7321,66.2625 30.2321,67.2625 30,68.5C 29.7216,67.5842 29.2216,66.9175 28.5,66.5C 28.1973,63.4693 28.1973,60.4693 28.5,57.5C 29.7179,57.26 30.7179,57.26 31.5,57.5C 35.4518,54.8186 37.7851,51.4852 38.5,47.5 Z"/></g>
<g><path style="opacity:1" fill="#a7adc2" d="M 84.5,45.5 C 82.5864,51.3072 81.4197,57.3072 81,63.5C 80.6667,60.8333 80.3333,58.1667 80,55.5C 79.4806,56.5156 78.6473,57.1822 77.5,57.5C 75.5466,56.8444 73.5466,56.5111 71.5,56.5C 71.5,58.1667 71.5,59.8333 71.5,61.5C 74.1667,61.5 76.8333,61.5 79.5,61.5C 79.5,63.1667 79.5,64.8333 79.5,66.5C 77.5,66.5 75.5,66.5 73.5,66.5C 73.2155,68.4147 73.5489,70.0813 74.5,71.5C 74.5,72.5 74.5,73.5 74.5,74.5C 71.4098,73.335 70.0764,71.0017 70.5,67.5C 69.4498,62.8862 69.2832,58.2196 70,53.5C 70.9947,52.9341 71.828,52.2674 72.5,51.5C 74.3684,50.7368 76.0351,49.7368 77.5,48.5C 80.0857,47.9902 82.419,46.9902 84.5,45.5 Z"/></g>
<g><path style="opacity:1" fill="#697281" d="M 141.5,46.5 C 144.841,46.6559 147.674,47.9892 150,50.5C 150.636,57.8561 150.469,65.1894 149.5,72.5C 139.338,72.1178 129.338,71.7844 119.5,71.5C 104.476,72.3764 89.4764,73.3764 74.5,74.5C 74.5,73.5 74.5,72.5 74.5,71.5C 76.3666,71.955 78.1999,72.6216 80,73.5C 96.6834,70.394 113.517,68.894 130.5,69C 132.211,67.5648 133.378,65.7314 134,63.5C 134.356,59.8539 135.189,56.3539 136.5,53C 140.233,52.7316 142.066,54.5649 142,58.5C 142.694,54.446 142.527,50.446 141.5,46.5 Z"/></g>
<g><path style="opacity:1" fill="#192026" d="M 159.5,49.5 C 163.683,50.7542 167.349,52.7542 170.5,55.5C 170.5,56.1667 170.5,56.8333 170.5,57.5C 170.5,60.1667 170.5,62.8333 170.5,65.5C 169.833,70.1667 169.167,74.8333 168.5,79.5C 168.666,71.8261 168.5,64.1594 168,56.5C 167.333,55.1667 166.667,55.1667 166,56.5C 165.319,58.8947 164.485,61.228 163.5,63.5C 162.833,59.6875 162.166,56.0208 161.5,52.5C 160.833,51.5 160.167,50.5 159.5,49.5 Z"/></g>
<g><path style="opacity:1" fill="#ad873c" d="M 50.5,63.5 C 50.5,66.1667 50.5,68.8333 50.5,71.5C 49.6618,71.8417 49.3284,72.5084 49.5,73.5C 46.8333,73.5 44.1667,73.5 41.5,73.5C 42.5,70.1667 43.5,66.8333 44.5,63.5C 43.1667,63.5 41.8333,63.5 40.5,63.5C 39.8333,63.5 39.1667,63.5 38.5,63.5C 41.2727,62.3428 44.2727,61.6761 47.5,61.5C 47.3398,63.1992 47.5065,64.8659 48,66.5C 48.2355,64.8807 49.0689,63.8807 50.5,63.5 Z"/></g>
<g><path style="opacity:1" fill="#2e281c" d="M 63.5,50.5 C 62.2748,54.3884 59.9415,57.3884 56.5,59.5C 55.8333,59.5 55.5,59.8333 55.5,60.5C 54.2101,61.0577 53.3768,62.0577 53,63.5C 52.5017,66.8168 52.335,70.1501 52.5,73.5C 51.8333,72.8333 51.1667,72.1667 50.5,71.5C 50.5,68.8333 50.5,66.1667 50.5,63.5C 53.5162,60.4797 56.1829,57.1464 58.5,53.5C 60.4113,52.925 62.078,51.925 63.5,50.5 Z"/></g>
<g><path style="opacity:1" fill="#0f3873" d="M 72.5,51.5 C 71.828,52.2674 70.9947,52.9341 70,53.5C 69.2832,58.2196 69.4498,62.8862 70.5,67.5C 68.9463,70.9852 69.6129,74.1518 72.5,77C 76.1606,76.8456 79.8272,76.3456 83.5,75.5C 85.0451,75.5108 86.3784,75.8442 87.5,76.5C 84.5234,76.9016 81.8567,77.9016 79.5,79.5C 74.1667,79.8333 68.8333,80.1667 63.5,80.5C 63.6633,78.1432 63.4966,75.8098 63,73.5C 62.2904,72.0267 61.1238,71.3601 59.5,71.5C 57.8881,67.7191 56.8881,63.7191 56.5,59.5C 59.9415,57.3884 62.2748,54.3884 63.5,50.5C 65.9201,50.7076 68.2534,50.3742 70.5,49.5C 71.5223,49.8555 72.189,50.5222 72.5,51.5 Z"/></g>
<g><path style="opacity:1" fill="#847133" d="M 186.5,55.5 C 188.448,57.3204 189.448,59.6538 189.5,62.5C 185.787,61.7068 182.12,61.7068 178.5,62.5C 179.505,65.8456 180.505,69.1789 181.5,72.5C 177.681,72.586 174.015,71.9193 170.5,70.5C 170.5,68.8333 170.5,67.1667 170.5,65.5C 170.5,62.8333 170.5,60.1667 170.5,57.5C 170.911,61.7938 171.911,65.9605 173.5,70C 175.112,70.7203 176.612,70.5536 178,69.5C 177.845,66.1597 177.345,62.8264 176.5,59.5C 180.136,59.5941 183.636,60.2607 187,61.5C 187.49,59.4546 187.323,57.4546 186.5,55.5 Z"/></g>
<g><path style="opacity:1" fill="#0d2143" d="M 56.5,59.5 C 56.8881,63.7191 57.8881,67.7191 59.5,71.5C 61.1238,71.3601 62.2904,72.0267 63,73.5C 63.4966,75.8098 63.6633,78.1432 63.5,80.5C 68.8333,80.1667 74.1667,79.8333 79.5,79.5C 79.5,79.8333 79.5,80.1667 79.5,80.5C 75.0192,80.4255 70.6859,81.0921 66.5,82.5C 62.5767,83.141 58.7434,83.141 55,82.5C 53.6293,75.1747 53.7959,67.8413 55.5,60.5C 55.5,59.8333 55.8333,59.5 56.5,59.5 Z"/></g>
<g><path style="opacity:1" fill="#151c29" d="M 55.5,60.5 C 53.7959,67.8413 53.6293,75.1747 55,82.5C 58.7434,83.141 62.5767,83.141 66.5,82.5C 66.5,82.8333 66.5,83.1667 66.5,83.5C 64.079,83.8782 61.7457,84.5448 59.5,85.5C 58.0413,85.4326 56.7079,85.7659 55.5,86.5C 54.8333,86.5 54.1667,86.5 53.5,86.5C 53.4287,83.6887 52.762,81.022 51.5,78.5C 52.0463,76.8653 52.3796,75.1986 52.5,73.5C 52.335,70.1501 52.5017,66.8168 53,63.5C 53.3768,62.0577 54.2101,61.0577 55.5,60.5 Z"/></g>
<g><path style="opacity:1" fill="#183665" d="M 127.5,39.5 C 131.232,40.0761 134.898,41.2428 138.5,43C 141.482,43.498 144.482,43.6646 147.5,43.5C 150.076,44.4878 152.743,45.4878 155.5,46.5C 156.568,47.4345 157.901,47.7678 159.5,47.5C 159.5,48.1667 159.5,48.8333 159.5,49.5C 160.167,50.5 160.833,51.5 161.5,52.5C 161.748,61.5404 161.415,70.5404 160.5,79.5C 160.167,79.5 159.833,79.5 159.5,79.5C 154.604,77.5539 149.271,76.8872 143.5,77.5C 131.011,76.5046 118.344,76.1713 105.5,76.5C 99.5,76.5 93.5,76.5 87.5,76.5C 86.3784,75.8442 85.0451,75.5108 83.5,75.5C 79.8272,76.3456 76.1606,76.8456 72.5,77C 69.6129,74.1518 68.9463,70.9852 70.5,67.5C 70.0764,71.0017 71.4098,73.335 74.5,74.5C 89.4764,73.3764 104.476,72.3764 119.5,71.5C 129.338,71.7844 139.338,72.1178 149.5,72.5C 150.469,65.1894 150.636,57.8561 150,50.5C 147.674,47.9892 144.841,46.6559 141.5,46.5C 129.256,42.219 116.589,40.5523 103.5,41.5C 102.761,41.631 102.094,41.4643 101.5,41C 110.084,39.5901 118.75,39.0901 127.5,39.5 Z"/></g>
<g><path style="opacity:1" fill="#393c54" d="M 87.5,76.5 C 93.5,76.5 99.5,76.5 105.5,76.5C 105.5,76.8333 105.5,77.1667 105.5,77.5C 99.2737,77.3877 93.2737,78.0543 87.5,79.5C 84.8333,79.5 82.1667,79.5 79.5,79.5C 81.8567,77.9016 84.5234,76.9016 87.5,76.5 Z"/></g>
<g><path style="opacity:1" fill="#051f3f" d="M 161.5,52.5 C 162.166,56.0208 162.833,59.6875 163.5,63.5C 164.485,61.228 165.319,58.8947 166,56.5C 166.667,55.1667 167.333,55.1667 168,56.5C 168.5,64.1594 168.666,71.8261 168.5,79.5C 167.5,79.5 166.5,79.5 165.5,79.5C 163.833,79.5 162.167,79.5 160.5,79.5C 161.415,70.5404 161.748,61.5404 161.5,52.5 Z"/></g>
<g><path style="opacity:1" fill="#919f79" d="M 202.5,143.5 C 200.167,143.5 197.833,143.5 195.5,143.5C 195.649,144.552 195.483,145.552 195,146.5C 193.447,142.701 192.114,142.701 191,146.5C 189.492,144.162 187.325,143.162 184.5,143.5C 184.727,146.577 185.727,149.41 187.5,152C 186.327,161.438 187.327,170.605 190.5,179.5C 189.833,179.5 189.167,179.5 188.5,179.5C 186.544,171.005 185.044,162.338 184,153.5C 181.833,150.667 179.667,147.833 177.5,145C 176.207,144.51 174.873,144.343 173.5,144.5C 169.553,140.654 164.886,137.987 159.5,136.5C 159.5,136.167 159.5,135.833 159.5,135.5C 161.467,135.739 163.301,135.406 165,134.5C 166.785,135.24 168.618,135.907 170.5,136.5C 172.149,135.352 173.649,134.019 175,132.5C 175.249,133.624 175.749,134.624 176.5,135.5C 183.305,130.727 186.638,124.061 186.5,115.5C 183.317,102.876 183.983,90.5425 188.5,78.5C 188.291,77.914 187.957,77.414 187.5,77C 184.764,76.5783 182.098,76.5783 179.5,77C 179.043,76.586 178.709,76.086 178.5,75.5C 179.34,74.265 180.34,73.265 181.5,72.5C 180.505,69.1789 179.505,65.8456 178.5,62.5C 182.12,61.7068 185.787,61.7068 189.5,62.5C 189.448,59.6538 188.448,57.3204 186.5,55.5C 186.5,54.8333 186.5,54.1667 186.5,53.5C 185.788,51.0721 184.788,48.7388 183.5,46.5C 186.495,44.8249 189.162,42.8249 191.5,40.5C 194.757,39.5383 197.757,38.0383 200.5,36C 201.833,35.3333 203.167,35.3333 204.5,36C 203.298,71.7588 202.631,107.592 202.5,143.5 Z"/></g>
<g><path style="opacity:1" fill="#acb78b" d="M 40.5,63.5 C 41.8333,63.5 43.1667,63.5 44.5,63.5C 43.5,66.8333 42.5,70.1667 41.5,73.5C 44.1667,73.5 46.8333,73.5 49.5,73.5C 50.0375,80.8219 50.3709,88.1553 50.5,95.5C 49.5,95.5 48.5,95.5 47.5,95.5C 47.5,100.833 47.5,106.167 47.5,111.5C 46.5,111.5 45.5,111.5 44.5,111.5C 44.5,114.167 44.5,116.833 44.5,119.5C 45.5,119.5 46.5,119.5 47.5,119.5C 47.5,120.5 47.5,121.5 47.5,122.5C 49.5,122.833 51.5,123.167 53.5,123.5C 53.2407,127.068 51.2407,128.401 47.5,127.5C 47.67,128.822 47.3366,129.989 46.5,131C 44.1093,131.287 41.7759,131.787 39.5,132.5C 38.8333,128.167 38.1667,123.833 37.5,119.5C 36.6684,127.479 36.1684,135.479 36,143.5C 34.4816,132.75 34.6483,122.083 36.5,111.5C 34.8333,111.5 33.1667,111.5 31.5,111.5C 31.5,96.1667 31.5,80.8333 31.5,65.5C 34.6553,65.0104 37.6553,64.3438 40.5,63.5 Z"/></g>
<g><path style="opacity:1" fill="#4b3a40" d="M 143.5,78.5 C 143.5,78.1667 143.5,77.8333 143.5,77.5C 149.271,76.8872 154.604,77.5539 159.5,79.5C 154.203,78.7255 148.87,78.3921 143.5,78.5 Z"/></g>
<g><path style="opacity:1" fill="#8a8e6e" d="M 21.5,31.5 C 23.3084,31.4914 24.9751,31.9914 26.5,33C 27.6315,35.3743 29.2981,37.2076 31.5,38.5C 31.5,40.5 31.5,42.5 31.5,44.5C 34.8333,43.8333 38.1667,43.1667 41.5,42.5C 40.1516,43.6006 38.6516,44.6006 37,45.5C 36.5357,46.0944 36.369,46.7611 36.5,47.5C 34.549,47.2267 33.049,47.8934 32,49.5C 31.5026,52.146 31.3359,54.8127 31.5,57.5C 30.7179,57.26 29.7179,57.26 28.5,57.5C 28.1973,60.4693 28.1973,63.4693 28.5,66.5C 28.9111,104.166 29.2444,141.832 29.5,179.5C 29.1667,179.5 28.8333,179.5 28.5,179.5C 29.125,159.414 28.2916,139.414 26,119.5C 25.3333,130.167 24.6667,130.167 24,119.5C 23.6667,122.167 23.3333,124.833 23,127.5C 22.8267,121.984 22.3267,116.651 21.5,111.5C 21.5,84.8333 21.5,58.1667 21.5,31.5 Z"/></g>
<g><path style="opacity:1" fill="#f2b298" d="M 105.5,77.5 C 115.172,77.3335 124.839,77.5002 134.5,78C 129.956,79.8822 125.956,82.5489 122.5,86C 125.296,85.9034 127.963,85.0701 130.5,83.5C 130.968,85.1132 130.301,86.6132 128.5,88C 129.094,88.4643 129.761,88.631 130.5,88.5C 128.994,91.7778 129.327,94.7778 131.5,97.5C 136.557,100.252 141.557,100.085 146.5,97C 145.906,96.5357 145.239,96.369 144.5,96.5C 148.418,95.1662 149.418,92.4996 147.5,88.5C 146.378,87.3698 145.044,86.7031 143.5,86.5C 140.814,85.0119 141.147,84.3453 144.5,84.5C 147.518,85.3534 149.351,87.3534 150,90.5C 151.682,89.1354 151.849,87.6354 150.5,86C 147.28,83.2492 143.614,81.7492 139.5,81.5C 138.761,81.631 138.094,81.4643 137.5,81C 139.723,80.4338 141.723,79.6005 143.5,78.5C 148.87,78.3921 154.203,78.7255 159.5,79.5C 159.833,79.5 160.167,79.5 160.5,79.5C 161.025,85.8245 161.525,92.1578 162,98.5C 164.418,93.4874 165.585,88.1541 165.5,82.5C 167.142,80.9192 169.142,80.2525 171.5,80.5C 172.158,83.1555 172.825,85.8222 173.5,88.5C 172.37,93.4858 171.37,98.4858 170.5,103.5C 169.377,109.106 166.043,112.439 160.5,113.5C 160.66,111.801 160.494,110.134 160,108.5C 158.864,111.096 158.031,113.763 157.5,116.5C 156.849,117.091 156.182,117.757 155.5,118.5C 151.732,115.596 147.732,113.929 143.5,113.5C 146.005,115.253 148.671,116.753 151.5,118C 153.798,121.433 153.631,124.933 151,128.5C 149.194,126.694 147.36,124.86 145.5,123C 144.833,122.333 144.167,122.333 143.5,123C 145.684,125.016 147.684,127.183 149.5,129.5C 147.747,131.51 146.747,133.843 146.5,136.5C 145.577,135.697 144.577,135.53 143.5,136C 137.766,141.731 131.433,146.731 124.5,151C 119.589,152.492 114.589,152.826 109.5,152C 100.631,147.162 92.1311,141.996 84,136.5C 83.6886,135.258 84.1886,134.258 85.5,133.5C 84.6202,130.875 85.2869,128.542 87.5,126.5C 87.1667,126.167 86.8333,125.833 86.5,125.5C 84.5528,128.287 82.3862,130.954 80,133.5C 78.3035,131.44 77.1369,129.107 76.5,126.5C 79.0484,122.788 82.3817,119.955 86.5,118C 87.7112,117.107 87.7112,116.274 86.5,115.5C 82.8333,118.167 79.1667,120.833 75.5,123.5C 74.9954,121.231 73.6621,119.897 71.5,119.5C 70.4608,117.099 69.1274,114.765 67.5,112.5C 67.0546,115.218 67.7212,117.885 69.5,120.5C 67.5405,121.519 65.5405,121.519 63.5,120.5C 62.0858,118.946 60.4192,117.612 58.5,116.5C 56.4795,111.231 54.6462,105.898 53,100.5C 52.2605,95.5521 53.0938,90.8854 55.5,86.5C 56.7079,85.7659 58.0413,85.4326 59.5,85.5C 61.1949,89.8948 63.1949,94.2281 65.5,98.5C 66.4941,93.544 66.8275,88.544 66.5,83.5C 66.5,83.1667 66.5,82.8333 66.5,82.5C 70.6859,81.0921 75.0192,80.4255 79.5,80.5C 84.5258,81.0253 85.1924,82.3586 81.5,84.5C 80.1667,84.5 79.5,85.1667 79.5,86.5C 77.3652,86.147 76.0319,86.9803 75.5,89C 75.8361,90.0299 76.5028,90.5299 77.5,90.5C 77.67,91.8221 77.3366,92.9887 76.5,94C 78.4072,95.7564 80.4072,97.2564 82.5,98.5C 79.9028,98.7208 79.9028,99.2208 82.5,100C 87.1126,100.84 91.446,100.34 95.5,98.5C 95.5,95.8333 95.5,93.1667 95.5,90.5C 96.1577,89.6016 96.8243,88.6016 97.5,87.5C 98.891,88.6446 100.224,88.6446 101.5,87.5C 97.7023,85.204 94.0356,82.704 90.5,80C 89.552,79.5172 88.552,79.3505 87.5,79.5C 93.2737,78.0543 99.2737,77.3877 105.5,77.5 Z"/></g>
<g><path style="opacity:1" fill="#92a078" d="M 170.5,70.5 C 174.015,71.9193 177.681,72.586 181.5,72.5C 180.34,73.265 179.34,74.265 178.5,75.5C 178.709,76.086 179.043,76.586 179.5,77C 182.098,76.5783 184.764,76.5783 187.5,77C 187.957,77.414 188.291,77.914 188.5,78.5C 183.983,90.5425 183.317,102.876 186.5,115.5C 186.638,124.061 183.305,130.727 176.5,135.5C 175.749,134.624 175.249,133.624 175,132.5C 173.649,134.019 172.149,135.352 170.5,136.5C 168.618,135.907 166.785,135.24 165,134.5C 163.301,135.406 161.467,135.739 159.5,135.5C 159.5,132.5 159.5,129.5 159.5,126.5C 159.5,123.833 159.5,121.167 159.5,118.5C 159.413,115.402 159.913,115.068 161,117.5C 161.579,116.072 161.412,114.738 160.5,113.5C 166.043,112.439 169.377,109.106 170.5,103.5C 173.639,97.2921 174.806,90.6255 174,83.5C 171.197,79.6433 170.03,75.3099 170.5,70.5 Z"/></g>
<g><path style="opacity:1" fill="#946649" d="M 79.5,80.5 C 79.5,80.1667 79.5,79.8333 79.5,79.5C 82.1667,79.5 84.8333,79.5 87.5,79.5C 88.552,79.3505 89.552,79.5172 90.5,80C 94.0356,82.704 97.7023,85.204 101.5,87.5C 100.224,88.6446 98.891,88.6446 97.5,87.5C 96.8243,88.6016 96.1577,89.6016 95.5,90.5C 95.5,90.1667 95.5,89.8333 95.5,89.5C 95.0334,86.7026 93.3667,85.3692 90.5,85.5C 87.7131,84.5233 84.7131,84.19 81.5,84.5C 85.1924,82.3586 84.5258,81.0253 79.5,80.5 Z"/></g>
<g><path style="opacity:1" fill="#9a6d4e" d="M 105.5,77.5 C 105.5,77.1667 105.5,76.8333 105.5,76.5C 118.344,76.1713 131.011,76.5046 143.5,77.5C 143.5,77.8333 143.5,78.1667 143.5,78.5C 141.723,79.6005 139.723,80.4338 137.5,81C 138.094,81.4643 138.761,81.631 139.5,81.5C 138.167,82.1667 136.833,82.8333 135.5,83.5C 133.527,84.806 131.861,86.4727 130.5,88.5C 129.761,88.631 129.094,88.4643 128.5,88C 130.301,86.6132 130.968,85.1132 130.5,83.5C 127.963,85.0701 125.296,85.9034 122.5,86C 125.956,82.5489 129.956,79.8822 134.5,78C 124.839,77.5002 115.172,77.3335 105.5,77.5 Z"/></g>
<g><path style="opacity:1" fill="#321f18" d="M 81.5,84.5 C 84.7131,84.19 87.7131,84.5233 90.5,85.5C 86.7657,85.3227 83.0991,85.6561 79.5,86.5C 79.5,85.1667 80.1667,84.5 81.5,84.5 Z"/></g>
<g><path style="opacity:1" fill="#372118" d="M 139.5,81.5 C 143.614,81.7492 147.28,83.2492 150.5,86C 151.849,87.6354 151.682,89.1354 150,90.5C 149.351,87.3534 147.518,85.3534 144.5,84.5C 141.713,83.5233 138.713,83.19 135.5,83.5C 136.833,82.8333 138.167,82.1667 139.5,81.5 Z"/></g>
<g><path style="opacity:1" fill="#7c6b4c" d="M 170.5,65.5 C 170.5,67.1667 170.5,68.8333 170.5,70.5C 170.03,75.3099 171.197,79.6433 174,83.5C 174.806,90.6255 173.639,97.2921 170.5,103.5C 171.37,98.4858 172.37,93.4858 173.5,88.5C 172.825,85.8222 172.158,83.1555 171.5,80.5C 169.142,80.2525 167.142,80.9192 165.5,82.5C 165.5,81.5 165.5,80.5 165.5,79.5C 166.5,79.5 167.5,79.5 168.5,79.5C 169.167,74.8333 169.833,70.1667 170.5,65.5 Z"/></g>
<g><path style="opacity:1" fill="#2c2622" d="M 90.5,85.5 C 93.3667,85.3692 95.0334,86.7026 95.5,89.5C 94.8333,89.1667 94.1667,88.8333 93.5,88.5C 92.6935,87.2719 91.6935,86.2719 90.5,85.5 Z"/></g>
<g><path style="opacity:1" fill="#6a88a6" d="M 135.5,83.5 C 138.713,83.19 141.713,83.5233 144.5,84.5C 141.147,84.3453 140.814,85.0119 143.5,86.5C 144.834,94.0001 141.834,96.8334 134.5,95C 132.752,92.9871 131.418,90.8205 130.5,88.5C 131.861,86.4727 133.527,84.806 135.5,83.5 Z"/></g>
<g><path style="opacity:1" fill="#ab7646" d="M 66.5,83.5 C 66.8275,88.544 66.4941,93.544 65.5,98.5C 63.1949,94.2281 61.1949,89.8948 59.5,85.5C 61.7457,84.5448 64.079,83.8782 66.5,83.5 Z"/></g>
<g><path style="opacity:1" fill="#41302e" d="M 79.5,86.5 C 78.8333,87.5 78.1667,88.5 77.5,89.5C 77.5,89.8333 77.5,90.1667 77.5,90.5C 76.5028,90.5299 75.8361,90.0299 75.5,89C 76.0319,86.9803 77.3652,86.147 79.5,86.5 Z"/></g>
<g><path style="opacity:1" fill="#a7753a" d="M 160.5,79.5 C 162.167,79.5 163.833,79.5 165.5,79.5C 165.5,80.5 165.5,81.5 165.5,82.5C 165.585,88.1541 164.418,93.4874 162,98.5C 161.525,92.1578 161.025,85.8245 160.5,79.5 Z"/></g>
<g><path style="opacity:1" fill="#ece7e1" d="M 143.5,86.5 C 145.044,86.7031 146.378,87.3698 147.5,88.5C 149.418,92.4996 148.418,95.1662 144.5,96.5C 140.265,97.436 135.931,97.7693 131.5,97.5C 129.327,94.7778 128.994,91.7778 130.5,88.5C 131.418,90.8205 132.752,92.9871 134.5,95C 141.834,96.8334 144.834,94.0001 143.5,86.5 Z"/></g>
<g><path style="opacity:1" fill="#6f839a" d="M 90.5,85.5 C 91.6935,86.2719 92.6935,87.2719 93.5,88.5C 93.8595,96.2661 90.3595,98.5994 83,95.5C 81.9562,93.2852 81.2895,90.9519 81,88.5C 79.9887,89.3366 78.8221,89.67 77.5,89.5C 78.1667,88.5 78.8333,87.5 79.5,86.5C 83.0991,85.6561 86.7657,85.3227 90.5,85.5 Z"/></g>
<g><path style="opacity:1" fill="#e2e1e2" d="M 93.5,88.5 C 94.1667,88.8333 94.8333,89.1667 95.5,89.5C 95.5,89.8333 95.5,90.1667 95.5,90.5C 95.5,93.1667 95.5,95.8333 95.5,98.5C 91.1667,98.5 86.8333,98.5 82.5,98.5C 80.4072,97.2564 78.4072,95.7564 76.5,94C 77.3366,92.9887 77.67,91.8221 77.5,90.5C 77.5,90.1667 77.5,89.8333 77.5,89.5C 78.8221,89.67 79.9887,89.3366 81,88.5C 81.2895,90.9519 81.9562,93.2852 83,95.5C 90.3595,98.5994 93.8595,96.2661 93.5,88.5 Z"/></g>
<g><path style="opacity:1" fill="#8b7063" d="M 82.5,98.5 C 86.8333,98.5 91.1667,98.5 95.5,98.5C 91.446,100.34 87.1126,100.84 82.5,100C 79.9028,99.2208 79.9028,98.7208 82.5,98.5 Z"/></g>
<g><path style="opacity:1" fill="#967769" d="M 144.5,96.5 C 145.239,96.369 145.906,96.5357 146.5,97C 141.557,100.085 136.557,100.252 131.5,97.5C 135.931,97.7693 140.265,97.436 144.5,96.5 Z"/></g>
<g><path style="opacity:1" fill="#838871" d="M 218.5,-0.5 C 218.833,-0.5 219.167,-0.5 219.5,-0.5C 219.169,11.5588 219.836,23.5588 221.5,35.5C 221.485,37.6341 220.985,39.6341 220,41.5C 219.728,87.556 219.561,133.556 219.5,179.5C 219.167,179.5 218.833,179.5 218.5,179.5C 218.5,119.5 218.5,59.5 218.5,-0.5 Z"/></g>
<g><path style="opacity:1" fill="#c88370" d="M 56.5,89.5 C 61.7039,94.2753 63.8705,100.275 63,107.5C 66.1072,109.918 66.2739,111.585 63.5,112.5C 64.1667,113.167 64.8333,113.833 65.5,114.5C 61.2236,114.43 58.3902,112.096 57,107.5C 56.6691,103.315 55.8358,99.3155 54.5,95.5C 54.3631,93.1595 55.0298,91.1595 56.5,89.5 Z"/></g>
<g><path style="opacity:1" fill="#8f9978" d="M 219.5,-0.5 C 221.167,-0.5 222.833,-0.5 224.5,-0.5C 224.5,10.1667 224.5,20.8333 224.5,31.5C 221.768,42.5207 220.434,53.8541 220.5,65.5C 221.921,103.635 222.255,141.635 221.5,179.5C 220.833,179.5 220.167,179.5 219.5,179.5C 219.561,133.556 219.728,87.556 220,41.5C 220.985,39.6341 221.485,37.6341 221.5,35.5C 219.836,23.5588 219.169,11.5588 219.5,-0.5 Z"/></g>
<g><path style="opacity:1" fill="#be7e6b" d="M 167.5,84.5 C 168.978,84.238 170.311,84.5713 171.5,85.5C 170.732,89.4452 170.232,93.4452 170,97.5C 169.672,101.5 167.839,104.5 164.5,106.5C 164.167,106 163.833,105.5 163.5,105C 165.159,98.2534 166.492,91.4201 167.5,84.5 Z"/></g>
<g><path style="opacity:1" fill="#998968" d="M 53.5,86.5 C 54.1667,86.5 54.8333,86.5 55.5,86.5C 53.0938,90.8854 52.2605,95.5521 53,100.5C 54.6462,105.898 56.4795,111.231 58.5,116.5C 60.4192,117.612 62.0858,118.946 63.5,120.5C 61.3043,120.435 59.3043,119.768 57.5,118.5C 51.9302,108.266 50.5969,97.5989 53.5,86.5 Z"/></g>
<g><path style="opacity:1" fill="#7e7e66" d="M 31.5,65.5 C 31.5,80.8333 31.5,96.1667 31.5,111.5C 31.5,134.167 31.5,156.833 31.5,179.5C 30.8333,179.5 30.1667,179.5 29.5,179.5C 29.2444,141.832 28.9111,104.166 28.5,66.5C 29.2216,66.9175 29.7216,67.5842 30,68.5C 30.2321,67.2625 30.7321,66.2625 31.5,65.5 Z"/></g>
<g><path style="opacity:1" fill="#bec4a2" d="M 21.5,135.5 C 21.5,150.167 21.5,164.833 21.5,179.5C 14.1667,179.5 6.83333,179.5 -0.5,179.5C -0.5,162.167 -0.5,144.833 -0.5,127.5C 2.16667,127.5 4.83333,127.5 7.5,127.5C 7.83333,116.833 8.16667,116.833 8.5,127.5C 9.67504,127.281 10.675,127.614 11.5,128.5C 12.1743,130.517 13.3409,132.183 15,133.5C 15.1681,142.186 15.6681,150.852 16.5,159.5C 18.1369,154.286 19.1369,148.953 19.5,143.5C 19.328,132.864 18.828,132.864 18,143.5C 17.1705,138.136 17.3372,132.802 18.5,127.5C 19.5148,130.276 20.5148,132.943 21.5,135.5 Z"/></g>
<g><path style="opacity:1" fill="#a36836" d="M 160.5,113.5 C 161.412,114.738 161.579,116.072 161,117.5C 159.913,115.068 159.413,115.402 159.5,118.5C 155.691,127.431 150.358,135.431 143.5,142.5C 143.5,141.833 143.5,141.167 143.5,140.5C 144.5,139.167 145.5,137.833 146.5,136.5C 152.242,131.02 155.908,124.353 157.5,116.5C 158.031,113.763 158.864,111.096 160,108.5C 160.494,110.134 160.66,111.801 160.5,113.5 Z"/></g>
<g><path style="opacity:1" fill="#d58f77" d="M 106.5,117.5 C 111.5,117.5 116.5,117.5 121.5,117.5C 120.259,121.339 117.592,123.672 113.5,124.5C 109.448,123.782 107.115,121.448 106.5,117.5 Z"/></g>
<g><path style="opacity:1" fill="#a36b43" d="M 71.5,119.5 C 73.0497,125.139 75.383,130.473 78.5,135.5C 77.8826,135.611 77.3826,135.944 77,136.5C 75.6561,133.135 73.8227,130.135 71.5,127.5C 71.2132,124.516 69.5465,123.183 66.5,123.5C 65.1667,122.833 64.1667,121.833 63.5,120.5C 65.5405,121.519 67.5405,121.519 69.5,120.5C 67.7212,117.885 67.0546,115.218 67.5,112.5C 69.1274,114.765 70.4608,117.099 71.5,119.5 Z"/></g>
<g><path style="opacity:1" fill="#c98a6f" d="M 130.5,124.5 C 132.604,124.201 134.604,124.534 136.5,125.5C 133.559,126.522 130.559,127.355 127.5,128C 117.457,128.419 107.457,129.252 97.5,130.5C 96.8333,130.167 96.1667,129.833 95.5,129.5C 106.054,127.356 116.721,126.19 127.5,126C 128.737,125.768 129.737,125.268 130.5,124.5 Z"/></g>
<g><path style="opacity:1" fill="#ce8c6f" d="M 157.5,116.5 C 155.908,124.353 152.242,131.02 146.5,136.5C 146.747,133.843 147.747,131.51 149.5,129.5C 147.684,127.183 145.684,125.016 143.5,123C 144.167,122.333 144.833,122.333 145.5,123C 147.36,124.86 149.194,126.694 151,128.5C 153.631,124.933 153.798,121.433 151.5,118C 148.671,116.753 146.005,115.253 143.5,113.5C 147.732,113.929 151.732,115.596 155.5,118.5C 156.182,117.757 156.849,117.091 157.5,116.5 Z"/></g>
<g><path style="opacity:1" fill="#b0ba91" d="M 50.5,71.5 C 51.1667,72.1667 51.8333,72.8333 52.5,73.5C 52.3796,75.1986 52.0463,76.8653 51.5,78.5C 52.762,81.022 53.4287,83.6887 53.5,86.5C 50.5969,97.5989 51.9302,108.266 57.5,118.5C 59.3043,119.768 61.3043,120.435 63.5,120.5C 64.1667,121.833 65.1667,122.833 66.5,123.5C 67.6976,126.426 68.6976,129.426 69.5,132.5C 68.5,132.5 67.5,132.5 66.5,132.5C 66.6101,136.61 65.6101,140.277 63.5,143.5C 61.712,143.215 60.0453,143.548 58.5,144.5C 55.1965,146.563 52.1965,149.063 49.5,152C 47.5116,152.18 45.5116,152.014 43.5,151.5C 43.4125,154.598 43.9125,154.932 45,152.5C 43.7394,161.369 42.9061,170.369 42.5,179.5C 38.8333,179.5 35.1667,179.5 31.5,179.5C 31.5,156.833 31.5,134.167 31.5,111.5C 33.1667,111.5 34.8333,111.5 36.5,111.5C 34.6483,122.083 34.4816,132.75 36,143.5C 36.1684,135.479 36.6684,127.479 37.5,119.5C 38.1667,123.833 38.8333,128.167 39.5,132.5C 41.7759,131.787 44.1093,131.287 46.5,131C 47.3366,129.989 47.67,128.822 47.5,127.5C 51.2407,128.401 53.2407,127.068 53.5,123.5C 51.5,123.167 49.5,122.833 47.5,122.5C 47.5,121.5 47.5,120.5 47.5,119.5C 46.5,119.5 45.5,119.5 44.5,119.5C 44.5,116.833 44.5,114.167 44.5,111.5C 45.5,111.5 46.5,111.5 47.5,111.5C 47.5,106.167 47.5,100.833 47.5,95.5C 48.5,95.5 49.5,95.5 50.5,95.5C 50.3709,88.1553 50.0375,80.8219 49.5,73.5C 49.3284,72.5084 49.6618,71.8417 50.5,71.5 Z"/></g>
<g><path style="opacity:1" fill="#90793c" d="M 66.5,123.5 C 69.5465,123.183 71.2132,124.516 71.5,127.5C 70.7611,127.369 70.0944,127.536 69.5,128C 71.2683,131.196 71.935,134.363 71.5,137.5C 70.5592,135.95 69.8925,134.284 69.5,132.5C 68.6976,129.426 67.6976,126.426 66.5,123.5 Z"/></g>
<g><path style="opacity:1" fill="#c6943c" d="M 159.5,118.5 C 159.5,121.167 159.5,123.833 159.5,126.5C 157.989,129.544 157.322,132.878 157.5,136.5C 156.178,136.67 155.011,136.337 154,135.5C 152.37,136.818 152.203,138.151 153.5,139.5C 153.5,140.167 153.167,140.5 152.5,140.5C 151.136,142.22 150.136,144.22 149.5,146.5C 147.484,147.694 145.484,147.694 143.5,146.5C 143.5,145.167 143.5,143.833 143.5,142.5C 150.358,135.431 155.691,127.431 159.5,118.5 Z"/></g>
<g><path style="opacity:1" fill="#54543e" d="M 215.5,-0.5 C 216.5,-0.5 217.5,-0.5 218.5,-0.5C 218.5,59.5 218.5,119.5 218.5,179.5C 217.5,179.5 216.5,179.5 215.5,179.5C 215.5,119.5 215.5,59.5 215.5,-0.5 Z"/></g>
<g><path style="opacity:1" fill="#9ea289" d="M 69.5,132.5 C 69.8925,134.284 70.5592,135.95 71.5,137.5C 71.5,137.833 71.5,138.167 71.5,138.5C 71.5569,139.609 71.8902,140.609 72.5,141.5C 70.302,141.12 68.6354,141.787 67.5,143.5C 60.5909,147.05 53.7576,151.05 47,155.5C 44.9968,163.351 43.8302,171.351 43.5,179.5C 43.1667,179.5 42.8333,179.5 42.5,179.5C 42.9061,170.369 43.7394,161.369 45,152.5C 43.9125,154.932 43.4125,154.598 43.5,151.5C 45.5116,152.014 47.5116,152.18 49.5,152C 52.1965,149.063 55.1965,146.563 58.5,144.5C 60.0453,143.548 61.712,143.215 63.5,143.5C 65.6101,140.277 66.6101,136.61 66.5,132.5C 67.5,132.5 68.5,132.5 69.5,132.5 Z"/></g>
<g><path style="opacity:1" fill="#907138" d="M 159.5,126.5 C 159.5,129.5 159.5,132.5 159.5,135.5C 159.5,135.833 159.5,136.167 159.5,136.5C 158.186,139.277 157.186,142.277 156.5,145.5C 155.792,143.255 154.792,141.255 153.5,139.5C 152.203,138.151 152.37,136.818 154,135.5C 155.011,136.337 156.178,136.67 157.5,136.5C 157.322,132.878 157.989,129.544 159.5,126.5 Z"/></g>
<g><path style="opacity:1" fill="#c48e39" d="M 71.5,127.5 C 73.8227,130.135 75.6561,133.135 77,136.5C 77.3826,135.944 77.8826,135.611 78.5,135.5C 82.1664,137.504 85.1664,140.171 87.5,143.5C 88.6448,146.073 89.1448,148.739 89,151.5C 87.9479,149.189 86.1146,147.856 83.5,147.5C 82.7492,148.376 82.2492,149.376 82,150.5C 80.0972,148.559 79.2639,146.226 79.5,143.5C 78.0222,143.762 76.6888,143.429 75.5,142.5C 74.5905,140.625 73.2572,139.292 71.5,138.5C 71.5,138.167 71.5,137.833 71.5,137.5C 71.935,134.363 71.2683,131.196 69.5,128C 70.0944,127.536 70.7611,127.369 71.5,127.5 Z"/></g>
<g><path style="opacity:1" fill="#d9987e" d="M 146.5,136.5 C 145.5,137.833 144.5,139.167 143.5,140.5C 138.208,145.616 132.208,149.782 125.5,153C 119.903,154.456 114.237,154.789 108.5,154C 102.112,150.476 95.779,146.976 89.5,143.5C 88.8333,143.5 88.1667,143.5 87.5,143.5C 85.1664,140.171 82.1664,137.504 78.5,135.5C 75.383,130.473 73.0497,125.139 71.5,119.5C 73.6621,119.897 74.9954,121.231 75.5,123.5C 79.1667,120.833 82.8333,118.167 86.5,115.5C 87.7112,116.274 87.7112,117.107 86.5,118C 82.3817,119.955 79.0484,122.788 76.5,126.5C 77.1369,129.107 78.3035,131.44 80,133.5C 82.3862,130.954 84.5528,128.287 86.5,125.5C 86.8333,125.833 87.1667,126.167 87.5,126.5C 85.2869,128.542 84.6202,130.875 85.5,133.5C 84.1886,134.258 83.6886,135.258 84,136.5C 92.1311,141.996 100.631,147.162 109.5,152C 114.589,152.826 119.589,152.492 124.5,151C 131.433,146.731 137.766,141.731 143.5,136C 144.577,135.53 145.577,135.697 146.5,136.5 Z"/></g>
<g><path style="opacity:1" fill="#9eab81" d="M 202.5,143.5 C 202.5,155.5 202.5,167.5 202.5,179.5C 198.5,179.5 194.5,179.5 190.5,179.5C 187.327,170.605 186.327,161.438 187.5,152C 185.727,149.41 184.727,146.577 184.5,143.5C 187.325,143.162 189.492,144.162 191,146.5C 192.114,142.701 193.447,142.701 195,146.5C 195.483,145.552 195.649,144.552 195.5,143.5C 197.833,143.5 200.167,143.5 202.5,143.5 Z"/></g>
<g><path style="opacity:1" fill="#8f9f74" d="M 224.5,31.5 C 224.5,80.8333 224.5,130.167 224.5,179.5C 223.5,179.5 222.5,179.5 221.5,179.5C 222.255,141.635 221.921,103.635 220.5,65.5C 220.434,53.8541 221.768,42.5207 224.5,31.5 Z"/></g>
<g><path style="opacity:1" fill="#9f5e49" d="M 143.5,140.5 C 143.5,141.167 143.5,141.833 143.5,142.5C 143.5,143.833 143.5,145.167 143.5,146.5C 143.5,148.833 143.5,151.167 143.5,153.5C 143.054,156.01 143.72,158.01 145.5,159.5C 145.5,160.167 145.5,160.833 145.5,161.5C 145.703,163.044 146.37,164.378 147.5,165.5C 146.998,166.521 146.332,166.688 145.5,166C 144.137,164.055 143.303,161.888 143,159.5C 142.667,154.167 142.333,148.833 142,143.5C 139.809,144.833 137.976,146.5 136.5,148.5C 123.111,158.811 109.444,159.144 95.5,149.5C 94.1007,148.11 92.4341,147.11 90.5,146.5C 90.4431,145.391 90.1098,144.391 89.5,143.5C 95.779,146.976 102.112,150.476 108.5,154C 114.237,154.789 119.903,154.456 125.5,153C 132.208,149.782 138.208,145.616 143.5,140.5 Z"/></g>
<g><path style="opacity:1" fill="#a47d3d" d="M 152.5,140.5 C 152.167,142.5 151.833,144.5 151.5,146.5C 150.218,148.785 148.551,150.785 146.5,152.5C 145.391,152.557 144.391,152.89 143.5,153.5C 143.5,151.167 143.5,148.833 143.5,146.5C 145.484,147.694 147.484,147.694 149.5,146.5C 150.136,144.22 151.136,142.22 152.5,140.5 Z"/></g>
<g><path style="opacity:1" fill="#95723f" d="M 71.5,138.5 C 73.2572,139.292 74.5905,140.625 75.5,142.5C 76.6888,143.429 78.0222,143.762 79.5,143.5C 79.2639,146.226 80.0972,148.559 82,150.5C 82.2492,149.376 82.7492,148.376 83.5,147.5C 86.1146,147.856 87.9479,149.189 89,151.5C 89.1448,148.739 88.6448,146.073 87.5,143.5C 88.1667,143.5 88.8333,143.5 89.5,143.5C 90.1098,144.391 90.4431,145.391 90.5,146.5C 92.0916,150.098 91.7583,153.431 89.5,156.5C 87.8564,154.519 86.1897,152.519 84.5,150.5C 83.4993,155.464 81.8327,155.797 79.5,151.5C 79.5086,149.692 79.0086,148.025 78,146.5C 77.7216,147.416 77.2216,148.082 76.5,148.5C 75.4161,145.996 74.0828,143.663 72.5,141.5C 71.8902,140.609 71.5569,139.609 71.5,138.5 Z"/></g>
<g><path style="opacity:1" fill="#917f69" d="M 165.5,165.5 C 164.035,166.406 163.035,167.739 162.5,169.5C 161.234,170.362 159.901,171.029 158.5,171.5C 158.586,170.504 158.252,169.671 157.5,169C 153.304,166.739 149.304,164.239 145.5,161.5C 145.5,160.833 145.5,160.167 145.5,159.5C 147.097,160.09 148.431,161.09 149.5,162.5C 150.641,160.579 150.808,158.579 150,156.5C 149.667,157.5 149.333,158.5 149,159.5C 148.144,157.132 147.31,154.798 146.5,152.5C 148.551,150.785 150.218,148.785 151.5,146.5C 150.88,152.926 151.547,158.926 153.5,164.5C 155.03,166.346 157.03,167.346 159.5,167.5C 159.56,168.043 159.893,168.376 160.5,168.5C 161.48,167.019 162.647,165.685 164,164.5C 164.037,157.332 164.704,150.332 166,143.5C 165.515,150.907 165.348,158.24 165.5,165.5 Z"/></g>
<g><path style="opacity:1" fill="#aca48b" d="M 159.5,167.5 C 157.03,167.346 155.03,166.346 153.5,164.5C 154.486,160.03 154.819,155.363 154.5,150.5C 157.766,150.567 159.266,148.901 159,145.5C 159.5,152.826 159.666,160.159 159.5,167.5 Z"/></g>
<g><path style="opacity:1" fill="#d3c7a8" d="M 89.5,156.5 C 90.3007,158.042 90.634,159.708 90.5,161.5C 88.4602,163.177 86.4602,164.844 84.5,166.5C 83.6909,164.708 83.1909,162.708 83,160.5C 82,163.167 81,165.833 80,168.5C 79.5006,162.843 79.3339,157.176 79.5,151.5C 81.8327,155.797 83.4993,155.464 84.5,150.5C 86.1897,152.519 87.8564,154.519 89.5,156.5 Z"/></g>
<g><path style="opacity:1" fill="#9d9f84" d="M 21.5,111.5 C 22.3267,116.651 22.8267,121.984 23,127.5C 23.3333,124.833 23.6667,122.167 24,119.5C 24.6667,130.167 25.3333,130.167 26,119.5C 28.2916,139.414 29.125,159.414 28.5,179.5C 26.1667,179.5 23.8333,179.5 21.5,179.5C 21.5,164.833 21.5,150.167 21.5,135.5C 21.5,127.5 21.5,119.5 21.5,111.5 Z"/></g>
<g><path style="opacity:1" fill="#eff0e9" d="M 67.5,143.5 C 68.9953,143.415 69.9953,144.081 70.5,145.5C 69.0065,146.141 68.0065,147.141 67.5,148.5C 67.1667,148.5 66.8333,148.5 66.5,148.5C 64.8243,150.834 62.491,151.834 59.5,151.5C 59.719,152.675 59.3857,153.675 58.5,154.5C 56.9938,155.23 55.6605,155.563 54.5,155.5C 55.3094,157.071 55.6427,158.738 55.5,160.5C 53.1688,160.859 53.3355,161.526 56,162.5C 56.7787,167.428 59.2787,171.095 63.5,173.5C 66.1389,174.806 68.1389,176.806 69.5,179.5C 60.8333,179.5 52.1667,179.5 43.5,179.5C 43.8302,171.351 44.9968,163.351 47,155.5C 53.7576,151.05 60.5909,147.05 67.5,143.5 Z"/></g>
<g><path style="opacity:1" fill="#c8bb9f" d="M 146.5,152.5 C 147.31,154.798 148.144,157.132 149,159.5C 149.333,158.5 149.667,157.5 150,156.5C 150.808,158.579 150.641,160.579 149.5,162.5C 148.431,161.09 147.097,160.09 145.5,159.5C 143.72,158.01 143.054,156.01 143.5,153.5C 144.391,152.89 145.391,152.557 146.5,152.5 Z"/></g>
<g><path style="opacity:1" fill="#a89d83" d="M 79.5,151.5 C 79.3339,157.176 79.5006,162.843 80,168.5C 81,165.833 82,163.167 83,160.5C 83.1909,162.708 83.6909,164.708 84.5,166.5C 82.6505,168.572 80.3171,169.905 77.5,170.5C 77.2049,163.774 77.5383,157.108 78.5,150.5C 77.7573,149.818 77.0906,149.151 76.5,148.5C 77.2216,148.082 77.7216,147.416 78,146.5C 79.0086,148.025 79.5086,149.692 79.5,151.5 Z"/></g>
<g><path style="opacity:1" fill="#cec7b0" d="M 159.5,136.5 C 164.886,137.987 169.553,140.654 173.5,144.5C 171.879,144.787 170.879,145.787 170.5,147.5C 172.076,149.577 174.076,151.077 176.5,152C 173.206,156.934 169.539,161.434 165.5,165.5C 165.348,158.24 165.515,150.907 166,143.5C 164.704,150.332 164.037,157.332 164,164.5C 162.647,165.685 161.48,167.019 160.5,168.5C 159.893,168.376 159.56,168.043 159.5,167.5C 159.666,160.159 159.5,152.826 159,145.5C 159.266,148.901 157.766,150.567 154.5,150.5C 154.819,155.363 154.486,160.03 153.5,164.5C 151.547,158.926 150.88,152.926 151.5,146.5C 151.833,144.5 152.167,142.5 152.5,140.5C 153.167,140.5 153.5,140.167 153.5,139.5C 154.792,141.255 155.792,143.255 156.5,145.5C 157.186,142.277 158.186,139.277 159.5,136.5 Z"/></g>
<g><path style="opacity:1" fill="#a29e87" d="M 63.5,173.5 C 59.2787,171.095 56.7787,167.428 56,162.5C 53.3355,161.526 53.1688,160.859 55.5,160.5C 57.0841,162.529 58.4174,164.862 59.5,167.5C 60.329,162.533 60.829,157.533 61,152.5C 61.3333,152.833 61.6667,153.167 62,153.5C 62.469,160.411 62.969,167.078 63.5,173.5 Z"/></g>
<g><path style="opacity:1" fill="#9f7964" d="M 90.5,161.5 C 91.6225,163.288 91.7891,165.288 91,167.5C 90.7508,166.376 90.2508,165.376 89.5,164.5C 84.3301,169.652 78.3301,173.319 71.5,175.5C 71.4326,176.959 71.7659,178.292 72.5,179.5C 71.5,179.5 70.5,179.5 69.5,179.5C 68.1389,176.806 66.1389,174.806 63.5,173.5C 65.677,173.586 67.677,174.253 69.5,175.5C 72.568,174.309 75.2346,172.642 77.5,170.5C 80.3171,169.905 82.6505,168.572 84.5,166.5C 86.4602,164.844 88.4602,163.177 90.5,161.5 Z"/></g>
<g><path style="opacity:1" fill="#d98d7e" d="M 145.5,161.5 C 149.304,164.239 153.304,166.739 157.5,169C 158.252,169.671 158.586,170.504 158.5,171.5C 158.672,172.492 158.338,173.158 157.5,173.5C 157.631,172.761 157.464,172.094 157,171.5C 152.75,173.667 148.25,175 143.5,175.5C 143.5,176.833 143.5,178.167 143.5,179.5C 119.833,179.5 96.1667,179.5 72.5,179.5C 71.7659,178.292 71.4326,176.959 71.5,175.5C 78.3301,173.319 84.3301,169.652 89.5,164.5C 90.2508,165.376 90.7508,166.376 91,167.5C 91.7891,165.288 91.6225,163.288 90.5,161.5C 90.634,159.708 90.3007,158.042 89.5,156.5C 91.7583,153.431 92.0916,150.098 90.5,146.5C 92.4341,147.11 94.1007,148.11 95.5,149.5C 100.006,157.342 106.673,162.342 115.5,164.5C 116.833,164.333 118.167,164.167 119.5,164C 121.921,161.906 124.588,160.24 127.5,159C 131.107,155.902 134.107,152.402 136.5,148.5C 137.976,146.5 139.809,144.833 142,143.5C 142.333,148.833 142.667,154.167 143,159.5C 143.303,161.888 144.137,164.055 145.5,166C 146.332,166.688 146.998,166.521 147.5,165.5C 146.37,164.378 145.703,163.044 145.5,161.5 Z"/></g>
<g><path style="opacity:1" fill="#b47362" d="M 136.5,148.5 C 134.107,152.402 131.107,155.902 127.5,159C 124.588,160.24 121.921,161.906 119.5,164C 118.167,164.167 116.833,164.333 115.5,164.5C 106.673,162.342 100.006,157.342 95.5,149.5C 109.444,159.144 123.111,158.811 136.5,148.5 Z"/></g>
<g><path style="opacity:1" fill="#efeee9" d="M 173.5,144.5 C 174.873,144.343 176.207,144.51 177.5,145C 179.667,147.833 181.833,150.667 184,153.5C 185.044,162.338 186.544,171.005 188.5,179.5C 174.833,179.5 161.167,179.5 147.5,179.5C 149.606,175.476 152.939,173.476 157.5,173.5C 158.338,173.158 158.672,172.492 158.5,171.5C 159.901,171.029 161.234,170.362 162.5,169.5C 163.035,167.739 164.035,166.406 165.5,165.5C 169.539,161.434 173.206,156.934 176.5,152C 174.076,151.077 172.076,149.577 170.5,147.5C 170.879,145.787 171.879,144.787 173.5,144.5 Z"/></g>
<g><path style="opacity:1" fill="#d1c9b0" d="M 72.5,141.5 C 74.0828,143.663 75.4161,145.996 76.5,148.5C 77.0906,149.151 77.7573,149.818 78.5,150.5C 77.5383,157.108 77.2049,163.774 77.5,170.5C 75.2346,172.642 72.568,174.309 69.5,175.5C 67.677,174.253 65.677,173.586 63.5,173.5C 62.969,167.078 62.469,160.411 62,153.5C 61.6667,153.167 61.3333,152.833 61,152.5C 60.829,157.533 60.329,162.533 59.5,167.5C 58.4174,164.862 57.0841,162.529 55.5,160.5C 55.6427,158.738 55.3094,157.071 54.5,155.5C 55.6605,155.563 56.9938,155.23 58.5,154.5C 59.3857,153.675 59.719,152.675 59.5,151.5C 62.491,151.834 64.8243,150.834 66.5,148.5C 66.7828,149.289 67.2828,149.956 68,150.5C 68.1905,157.668 69.3572,164.668 71.5,171.5C 71.8333,171 72.1667,170.5 72.5,170C 71.7157,162.536 71.2157,155.036 71,147.5C 70.296,149.727 69.1294,150.06 67.5,148.5C 68.0065,147.141 69.0065,146.141 70.5,145.5C 69.9953,144.081 68.9953,143.415 67.5,143.5C 68.6354,141.787 70.302,141.12 72.5,141.5 Z"/></g>
<g><path style="opacity:1" fill="#9b947a" d="M 66.5,148.5 C 66.8333,148.5 67.1667,148.5 67.5,148.5C 69.1294,150.06 70.296,149.727 71,147.5C 71.2157,155.036 71.7157,162.536 72.5,170C 72.1667,170.5 71.8333,171 71.5,171.5C 69.3572,164.668 68.1905,157.668 68,150.5C 67.2828,149.956 66.7828,149.289 66.5,148.5 Z"/></g>
<g><path style="opacity:1" fill="#ae897e" d="M 157.5,173.5 C 152.939,173.476 149.606,175.476 147.5,179.5C 146.167,179.5 144.833,179.5 143.5,179.5C 143.5,178.167 143.5,176.833 143.5,175.5C 148.25,175 152.75,173.667 157,171.5C 157.464,172.094 157.631,172.761 157.5,173.5 Z"/></g>
</svg>
