<?xml version="1.0" encoding="UTF-8"?>
<!DOCTYPE svg PUBLIC "-//W3C//DTD SVG 1.1//EN" "http://www.w3.org/Graphics/SVG/1.1/DTD/svg11.dtd">
<svg xmlns="http://www.w3.org/2000/svg" version="1.1" width="512px" height="512px" style="shape-rendering:geometricPrecision; text-rendering:geometricPrecision; image-rendering:optimizeQuality; fill-rule:evenodd; clip-rule:evenodd" xmlns:xlink="http://www.w3.org/1999/xlink">
<g><path style="opacity:1" fill="#fefefe" d="M -0.5,-0.5 C 170.167,-0.5 340.833,-0.5 511.5,-0.5C 511.5,170.167 511.5,340.833 511.5,511.5C 340.833,511.5 170.167,511.5 -0.5,511.5C -0.5,340.833 -0.5,170.167 -0.5,-0.5 Z"/></g>
<g><path style="opacity:1" fill="#e7d99c" d="M 339.5,63.5 C 332.174,64.1664 324.674,64.4997 317,64.5C 300.81,64.3034 284.643,63.6367 268.5,62.5C 259.314,61.2654 249.981,61.2654 240.5,62.5C 244.951,61.1729 249.784,60.5063 255,60.5C 283.128,62.6163 311.294,63.6163 339.5,63.5 Z"/></g>
<g><path style="opacity:1" fill="#1f1d1a" d="M 268.5,62.5 C 255.779,62.2704 243.112,62.9371 230.5,64.5C 233.589,63.2154 236.922,62.5488 240.5,62.5C 249.981,61.2654 259.314,61.2654 268.5,62.5 Z"/></g>
<g><path style="opacity:1" fill="#19152e" d="M 351.5,61.5 C 353.514,61.3915 355.18,62.0582 356.5,63.5C 355.059,74.5004 350.726,84.1671 343.5,92.5C 351.35,92.6865 359.017,90.8532 366.5,87C 368.579,86.1923 370.579,86.359 372.5,87.5C 373.6,91.4425 373.767,95.4425 373,99.5C 371.853,106.1 370.019,112.433 367.5,118.5C 365.058,118.119 364.391,118.786 365.5,120.5C 364.5,120.833 363.5,121.167 362.5,121.5C 360.379,120.601 358.379,120.601 356.5,121.5C 363.3,113.766 366.3,104.766 365.5,94.5C 363.664,95.0276 361.997,95.6942 360.5,96.5C 344.219,101.11 328.219,100.443 312.5,94.5C 319.321,93.6715 326.321,93.1715 333.5,93C 340.688,86.9754 345.688,79.4754 348.5,70.5C 345.691,69.1997 343.024,69.1997 340.5,70.5C 333.183,71.1178 325.849,71.4512 318.5,71.5C 298.678,70.2889 278.844,69.2889 259,68.5C 234.896,65.9328 213.896,72.5995 196,88.5C 188.757,96.3872 184.924,105.721 184.5,116.5C 180.534,115.838 176.534,115.505 172.5,115.5C 152.128,116.364 139.294,126.698 134,146.5C 132.487,155.447 132.154,164.447 133,173.5C 134.757,189.378 137.591,205.045 141.5,220.5C 145.164,221.665 148.831,222.832 152.5,224C 153.861,218.317 155.528,212.817 157.5,207.5C 156.865,210.493 156.699,213.493 157,216.5C 157.589,214.137 159.089,213.137 161.5,213.5C 158.128,230.731 155.295,248.064 153,265.5C 148.669,291.865 155.335,314.865 173,334.5C 175.106,337.118 177.606,339.118 180.5,340.5C 181.585,342.587 183.251,343.92 185.5,344.5C 200.558,357.023 217.891,364.69 237.5,367.5C 258.579,371.257 279.245,369.257 299.5,361.5C 298.653,362.966 297.32,363.8 295.5,364C 297.227,366.904 297.893,370.07 297.5,373.5C 296.5,373.5 295.5,373.5 294.5,373.5C 295.028,372.279 295.695,371.113 296.5,370C 287.36,372.279 278.027,373.946 268.5,375C 251.396,376.918 234.729,375.084 218.5,369.5C 217.759,372.706 218.759,375.373 221.5,377.5C 231.957,390.553 245.624,396.22 262.5,394.5C 258.353,395.325 254.019,395.825 249.5,396C 247.574,396.422 246.574,397.589 246.5,399.5C 226.844,396.349 214.178,385.182 208.5,366C 205.804,365.235 203.304,364.068 201,362.5C 200.506,364.134 200.34,365.801 200.5,367.5C 199.657,369.82 199.657,371.987 200.5,374C 199.627,375.045 198.627,375.878 197.5,376.5C 195.251,371.503 193.917,366.17 193.5,360.5C 193.585,359.005 192.919,358.005 191.5,357.5C 176.552,360.983 162.218,366.149 148.5,373C 141.333,377.5 135.5,383.333 131,390.5C 126.435,398.464 122.268,406.63 118.5,415C 120.063,416.736 121.73,418.236 123.5,419.5C 121.473,419.338 119.473,419.505 117.5,420C 116.944,420.383 116.611,420.883 116.5,421.5C 114.451,420.118 112.785,418.452 111.5,416.5C 117.073,399.508 126.073,384.674 138.5,372C 152.65,362.929 167.984,356.595 184.5,353C 164.271,339.283 151.937,320.45 147.5,296.5C 133.229,296.534 122.896,290.2 116.5,277.5C 111.585,263.949 111.252,250.283 115.5,236.5C 119.748,228.348 126.414,223.015 135.5,220.5C 132.176,208.515 129.509,196.515 127.5,184.5C 126.774,174.183 126.44,163.85 126.5,153.5C 129.665,127.169 144.332,112.335 170.5,109C 162.592,102.861 153.592,99.361 143.5,98.5C 143.709,97.914 144.043,97.414 144.5,97C 154.966,93.8304 164.466,95.6638 173,102.5C 172.644,96.1883 172.644,89.855 173,83.5C 174.594,76.2919 178.594,70.9586 185,67.5C 183.68,71.8341 182.013,76.1674 180,80.5C 179.044,87.3374 179.378,94.0041 181,100.5C 191.271,80.0987 207.771,68.0987 230.5,64.5C 243.112,62.9371 255.779,62.2704 268.5,62.5C 284.643,63.6367 300.81,64.3034 317,64.5C 324.674,64.4997 332.174,64.1664 339.5,63.5C 343.674,63.6664 347.674,62.9997 351.5,61.5 Z"/></g>
<g><path style="opacity:1" fill="#f9e68c" d="M 351.5,61.5 C 347.674,62.9997 343.674,63.6664 339.5,63.5C 311.294,63.6163 283.128,62.6163 255,60.5C 249.784,60.5063 244.951,61.1729 240.5,62.5C 236.922,62.5488 233.589,63.2154 230.5,64.5C 207.771,68.0987 191.271,80.0987 181,100.5C 179.378,94.0041 179.044,87.3374 180,80.5C 182.013,76.1674 183.68,71.8341 185,67.5C 178.594,70.9586 174.594,76.2919 173,83.5C 172.644,89.855 172.644,96.1883 173,102.5C 164.466,95.6638 154.966,93.8304 144.5,97C 144.043,97.414 143.709,97.914 143.5,98.5C 153.592,99.361 162.592,102.861 170.5,109C 144.332,112.335 129.665,127.169 126.5,153.5C 125.834,157.319 125.501,161.319 125.5,165.5C 125.361,172.065 126.028,178.399 127.5,184.5C 129.509,196.515 132.176,208.515 135.5,220.5C 126.414,223.015 119.748,228.348 115.5,236.5C 114.065,238.598 112.898,240.931 112,243.5C 111.229,253.357 111.396,263.191 112.5,273C 113.121,275.141 114.454,276.641 116.5,277.5C 122.896,290.2 133.229,296.534 147.5,296.5C 151.937,320.45 164.271,339.283 184.5,353C 167.984,356.595 152.65,362.929 138.5,372C 126.073,384.674 117.073,399.508 111.5,416.5C 102.893,409.727 95.0596,402.061 88,393.5C 65.6602,365.652 50.4935,334.319 42.5,299.5C 38.9136,278.674 37.5802,257.674 38.5,236.5C 48.2615,157.153 88.2615,98.3202 158.5,60C 222.215,30.1978 286.049,30.0311 350,59.5C 351.03,59.8361 351.53,60.5028 351.5,61.5 Z"/></g>
<g><path style="opacity:1" fill="#8b4f43" d="M 340.5,70.5 C 341.552,70.3505 342.552,70.5172 343.5,71C 335.19,81.1492 324.857,88.3158 312.5,92.5C 311.227,93.2565 311.227,93.9232 312.5,94.5C 328.219,100.443 344.219,101.11 360.5,96.5C 361.097,96.7352 361.43,97.2352 361.5,98C 355.164,113.67 343.83,123.67 327.5,128C 321.55,129.279 315.55,130.279 309.5,131C 314.386,133.27 319.386,135.104 324.5,136.5C 324.833,136.5 325.167,136.5 325.5,136.5C 326.848,138.48 328.848,139.647 331.5,140C 313.185,145.935 295.685,144.101 279,134.5C 278.879,136.684 279.379,138.684 280.5,140.5C 282.083,146.667 285.417,151.667 290.5,155.5C 267.205,156.515 246.205,149.848 227.5,135.5C 226.345,132.81 225.345,132.477 224.5,134.5C 225.205,138.32 226.371,141.986 228,145.5C 231.236,151.568 235.403,156.902 240.5,161.5C 239.796,163.344 238.463,163.844 236.5,163C 219.07,158.053 204.737,148.553 193.5,134.5C 192.024,132.231 190.524,129.898 189,127.5C 188.503,131.524 188.669,135.524 189.5,139.5C 190.387,154.73 184.22,166.063 171,173.5C 170.827,167.984 170.327,162.651 169.5,157.5C 169.649,156.448 169.483,155.448 169,154.5C 164.556,165.725 162.556,177.391 163,189.5C 160.456,195.297 158.623,201.297 157.5,207.5C 155.528,212.817 153.861,218.317 152.5,224C 148.831,222.832 145.164,221.665 141.5,220.5C 142.152,219.551 142.486,218.385 142.5,217C 138.514,194.763 138.681,172.597 143,150.5C 146.961,133.719 156.795,122.052 172.5,115.5C 176.534,115.505 180.534,115.838 184.5,116.5C 190.223,99.6094 201.556,88.1094 218.5,82C 226.586,78.9712 234.92,76.9712 243.5,76C 260.813,74.8894 278.147,74.2227 295.5,74C 303.375,73.7287 311.042,72.8953 318.5,71.5C 325.849,71.4512 333.183,71.1178 340.5,70.5 Z"/></g>
<g><path style="opacity:1" fill="#633431" d="M 340.5,70.5 C 343.024,69.1997 345.691,69.1997 348.5,70.5C 345.688,79.4754 340.688,86.9754 333.5,93C 326.321,93.1715 319.321,93.6715 312.5,94.5C 311.227,93.9232 311.227,93.2565 312.5,92.5C 324.857,88.3158 335.19,81.1492 343.5,71C 342.552,70.5172 341.552,70.3505 340.5,70.5 Z"/></g>
<g><path style="opacity:1" fill="#f3cfb7" d="M 318.5,71.5 C 311.042,72.8953 303.375,73.7287 295.5,74C 278.147,74.2227 260.813,74.8894 243.5,76C 234.92,76.9712 226.586,78.9712 218.5,82C 201.556,88.1094 190.223,99.6094 184.5,116.5C 184.924,105.721 188.757,96.3872 196,88.5C 213.896,72.5995 234.896,65.9328 259,68.5C 278.844,69.2889 298.678,70.2889 318.5,71.5 Z"/></g>
<g><path style="opacity:1" fill="#fae68e" d="M 356.5,63.5 C 421.075,99.395 459.408,153.728 471.5,226.5C 472.327,239.482 472.661,252.482 472.5,265.5C 468.326,324.484 444.992,374.317 402.5,415C 401.906,415.464 401.239,415.631 400.5,415.5C 396.653,406.803 392.487,398.136 388,389.5C 380.111,375.638 368.611,366.138 353.5,361C 345.228,358.132 336.895,355.465 328.5,353C 348.67,339.324 361.003,320.491 365.5,296.5C 384.163,295.68 395.33,286.013 399,267.5C 402.271,254.267 400.271,241.933 393,230.5C 389.077,225.291 383.91,222.291 377.5,221.5C 378.992,214.531 380.325,207.531 381.5,200.5C 382.271,197.546 382.938,194.546 383.5,191.5C 384.851,187.64 386.518,183.807 388.5,180C 387.679,169.577 387.179,159.077 387,148.5C 386.147,144.531 385.481,140.531 385,136.5C 384.184,135.177 383.017,134.511 381.5,134.5C 378.616,127.616 373.949,122.282 367.5,118.5C 370.019,112.433 371.853,106.1 373,99.5C 373.767,95.4425 373.6,91.4425 372.5,87.5C 370.579,86.359 368.579,86.1923 366.5,87C 359.017,90.8532 351.35,92.6865 343.5,92.5C 350.726,84.1671 355.059,74.5004 356.5,63.5 Z"/></g>
<g><path style="opacity:1" fill="#643430" d="M 356.5,121.5 C 348.154,130.335 337.821,134.835 325.5,135C 324.944,135.383 324.611,135.883 324.5,136.5C 319.386,135.104 314.386,133.27 309.5,131C 315.55,130.279 321.55,129.279 327.5,128C 343.83,123.67 355.164,113.67 361.5,98C 361.43,97.2352 361.097,96.7352 360.5,96.5C 361.997,95.6942 363.664,95.0276 365.5,94.5C 366.3,104.766 363.3,113.766 356.5,121.5 Z"/></g>
<g><path style="opacity:1" fill="#f3cfb8" d="M 172.5,115.5 C 156.795,122.052 146.961,133.719 143,150.5C 138.681,172.597 138.514,194.763 142.5,217C 142.486,218.385 142.152,219.551 141.5,220.5C 137.591,205.045 134.757,189.378 133,173.5C 132.154,164.447 132.487,155.447 134,146.5C 139.294,126.698 152.128,116.364 172.5,115.5 Z"/></g>
<g><path style="opacity:1" fill="#633431" d="M 373.5,211.5 C 372.13,214.619 371.13,217.952 370.5,221.5C 366.613,221.91 362.947,222.91 359.5,224.5C 359.198,221.627 358.531,218.961 357.5,216.5C 356.225,208.276 354.058,200.276 351,192.5C 350.667,184.833 350.333,177.167 350,169.5C 349.798,167.744 349.298,166.078 348.5,164.5C 346.308,169.954 344.808,175.62 344,181.5C 337.13,174.225 334.297,165.725 335.5,156C 344.154,152.088 351.654,146.588 358,139.5C 360.422,134.234 358.589,132.068 352.5,133C 356.936,130.564 360.769,127.397 364,123.5C 372.232,129.767 377.232,138.1 379,148.5C 379.667,157.167 379.667,165.833 379,174.5C 377.743,186.945 375.91,199.278 373.5,211.5 Z"/></g>
<g><path style="opacity:1" fill="#e5d595" d="M 381.5,134.5 C 383.017,134.511 384.184,135.177 385,136.5C 385.481,140.531 386.147,144.531 387,148.5C 387.179,159.077 387.679,169.577 388.5,180C 386.518,183.807 384.851,187.64 383.5,191.5C 385.923,177.932 386.757,164.266 386,150.5C 385.117,144.964 383.617,139.63 381.5,134.5 Z"/></g>
<g><path style="opacity:1" fill="#f5ceb2" d="M 154.5,138.5 C 155.765,139.514 156.431,141.014 156.5,143C 156.204,147.889 154.704,152.389 152,156.5C 150.89,158.037 149.39,158.703 147.5,158.5C 146.478,150.566 148.811,143.899 154.5,138.5 Z"/></g>
<g><path style="opacity:1" fill="#f4ccb2" d="M 161.5,145.5 C 163.722,145.559 164.722,146.725 164.5,149C 164.241,152.972 162.574,156.138 159.5,158.5C 158.914,158.291 158.414,157.957 158,157.5C 156.745,152.738 157.912,148.738 161.5,145.5 Z"/></g>
<g><path style="opacity:1" fill="#1b1432" d="M 367.5,118.5 C 373.949,122.282 378.616,127.616 381.5,134.5C 383.617,139.63 385.117,144.964 386,150.5C 386.757,164.266 385.923,177.932 383.5,191.5C 382.938,194.546 382.271,197.546 381.5,200.5C 379.575,204.452 378.075,208.785 377,213.5C 374.448,216.194 373.281,215.527 373.5,211.5C 375.91,199.278 377.743,186.945 379,174.5C 379.667,165.833 379.667,157.167 379,148.5C 377.232,138.1 372.232,129.767 364,123.5C 360.769,127.397 356.936,130.564 352.5,133C 358.589,132.068 360.422,134.234 358,139.5C 351.654,146.588 344.154,152.088 335.5,156C 334.297,165.725 337.13,174.225 344,181.5C 344.808,175.62 346.308,169.954 348.5,164.5C 349.298,166.078 349.798,167.744 350,169.5C 350.333,177.167 350.667,184.833 351,192.5C 354.058,200.276 356.225,208.276 357.5,216.5C 357.415,218.929 356.415,220.929 354.5,222.5C 353.818,221.757 353.151,221.091 352.5,220.5C 352.167,219.833 351.833,219.167 351.5,218.5C 349.316,209.769 346.816,201.102 344,192.5C 336.905,185.065 331.905,176.398 329,166.5C 328.503,163.854 328.336,161.187 328.5,158.5C 322.168,158.944 315.835,159.444 309.5,160C 312.208,161.069 314.875,162.236 317.5,163.5C 318.833,165.167 318.833,166.833 317.5,168.5C 304.657,171.328 291.657,172.161 278.5,171C 271.395,169.778 264.395,168.445 257.5,167C 261.674,169.588 266.007,171.921 270.5,174C 271.823,174.816 272.489,175.983 272.5,177.5C 271.599,178.29 270.932,179.29 270.5,180.5C 243.445,182.538 219.945,174.538 200,156.5C 196.797,170.858 188.63,181.191 175.5,187.5C 173.243,187.962 171.243,188.962 169.5,190.5C 166.799,198.276 164.132,205.942 161.5,213.5C 159.089,213.137 157.589,214.137 157,216.5C 156.699,213.493 156.865,210.493 157.5,207.5C 158.623,201.297 160.456,195.297 163,189.5C 162.556,177.391 164.556,165.725 169,154.5C 169.483,155.448 169.649,156.448 169.5,157.5C 169.169,165.86 169.502,174.193 170.5,182.5C 181.622,177.878 189.122,169.878 193,158.5C 194.406,151.553 193.239,145.22 189.5,139.5C 188.669,135.524 188.503,131.524 189,127.5C 190.524,129.898 192.024,132.231 193.5,134.5C 206.37,159.774 227.037,172.607 255.5,173C 249.769,170.1 244.769,166.267 240.5,161.5C 235.403,156.902 231.236,151.568 228,145.5C 226.371,141.986 225.205,138.32 224.5,134.5C 225.345,132.477 226.345,132.81 227.5,135.5C 235.976,149.443 248.31,158.276 264.5,162C 277.326,165.41 290.326,166.243 303.5,164.5C 298.873,161.865 294.54,158.865 290.5,155.5C 285.417,151.667 282.083,146.667 280.5,140.5C 280.435,140.062 280.601,139.728 281,139.5C 297.058,154.048 315.224,157.215 335.5,149C 339.844,146.829 343.844,144.163 347.5,141C 339.852,140.837 332.519,139.337 325.5,136.5C 325.167,136.5 324.833,136.5 324.5,136.5C 324.611,135.883 324.944,135.383 325.5,135C 337.821,134.835 348.154,130.335 356.5,121.5C 358.379,120.601 360.379,120.601 362.5,121.5C 363.5,121.167 364.5,120.833 365.5,120.5C 364.391,118.786 365.058,118.119 367.5,118.5 Z"/></g>
<g><path style="opacity:1" fill="#623532" d="M 193.5,134.5 C 204.737,148.553 219.07,158.053 236.5,163C 238.463,163.844 239.796,163.344 240.5,161.5C 244.769,166.267 249.769,170.1 255.5,173C 227.037,172.607 206.37,159.774 193.5,134.5 Z"/></g>
<g><path style="opacity:1" fill="#603331" d="M 227.5,135.5 C 246.205,149.848 267.205,156.515 290.5,155.5C 294.54,158.865 298.873,161.865 303.5,164.5C 290.326,166.243 277.326,165.41 264.5,162C 248.31,158.276 235.976,149.443 227.5,135.5 Z"/></g>
<g><path style="opacity:1" fill="#613230" d="M 325.5,136.5 C 332.519,139.337 339.852,140.837 347.5,141C 343.844,144.163 339.844,146.829 335.5,149C 315.224,157.215 297.058,154.048 281,139.5C 280.601,139.728 280.435,140.062 280.5,140.5C 279.379,138.684 278.879,136.684 279,134.5C 295.685,144.101 313.185,145.935 331.5,140C 328.848,139.647 326.848,138.48 325.5,136.5 Z"/></g>
<g><path style="opacity:1" fill="#633533" d="M 189.5,139.5 C 193.239,145.22 194.406,151.553 193,158.5C 189.122,169.878 181.622,177.878 170.5,182.5C 169.502,174.193 169.169,165.86 169.5,157.5C 170.327,162.651 170.827,167.984 171,173.5C 184.22,166.063 190.387,154.73 189.5,139.5 Z"/></g>
<g><path style="opacity:1" fill="#c9be92" d="M 126.5,153.5 C 126.44,163.85 126.774,174.183 127.5,184.5C 126.028,178.399 125.361,172.065 125.5,165.5C 125.501,161.319 125.834,157.319 126.5,153.5 Z"/></g>
<g><path style="opacity:1" fill="#e9967a" d="M 317.5,178.5 C 306.301,180.52 294.968,181.02 283.5,180C 279.867,179.851 276.534,179.018 273.5,177.5C 273.579,176.07 273.246,174.736 272.5,173.5C 283.485,172.668 294.485,172.168 305.5,172C 310.23,171.491 314.897,170.658 319.5,169.5C 321.682,168.177 322.349,166.51 321.5,164.5C 322.948,163.646 324.281,162.646 325.5,161.5C 327.795,165.548 328.962,169.882 329,174.5C 328.667,174.167 328.333,173.833 328,173.5C 324.727,175.689 321.227,177.356 317.5,178.5 Z"/></g>
<g><path style="opacity:1" fill="#e3967b" d="M 270.5,180.5 C 272.394,181.048 274.06,182.048 275.5,183.5C 249.074,189.644 225.408,183.978 204.5,166.5C 198.971,178.864 189.804,187.197 177,191.5C 175.97,191.164 175.47,190.497 175.5,189.5C 175.5,188.833 175.5,188.167 175.5,187.5C 188.63,181.191 196.797,170.858 200,156.5C 219.945,174.538 243.445,182.538 270.5,180.5 Z"/></g>
<g><path style="opacity:1" fill="#d8937f" d="M 351.5,218.5 C 348.15,209.951 344.983,201.285 342,192.5C 341.667,192.167 341.333,191.833 341,191.5C 339.908,193.931 338.741,193.931 337.5,191.5C 333.456,187.78 330.123,183.447 327.5,178.5C 324.205,177.599 320.872,177.599 317.5,178.5C 321.227,177.356 324.727,175.689 328,173.5C 328.333,173.833 328.667,174.167 329,174.5C 328.962,169.882 327.795,165.548 325.5,161.5C 324.281,162.646 322.948,163.646 321.5,164.5C 322.349,166.51 321.682,168.177 319.5,169.5C 314.897,170.658 310.23,171.491 305.5,172C 294.485,172.168 283.485,172.668 272.5,173.5C 273.246,174.736 273.579,176.07 273.5,177.5C 273.167,177.5 272.833,177.5 272.5,177.5C 272.489,175.983 271.823,174.816 270.5,174C 266.007,171.921 261.674,169.588 257.5,167C 264.395,168.445 271.395,169.778 278.5,171C 291.657,172.161 304.657,171.328 317.5,168.5C 318.833,166.833 318.833,165.167 317.5,163.5C 314.875,162.236 312.208,161.069 309.5,160C 315.835,159.444 322.168,158.944 328.5,158.5C 328.336,161.187 328.503,163.854 329,166.5C 331.905,176.398 336.905,185.065 344,192.5C 346.816,201.102 349.316,209.769 351.5,218.5 Z"/></g>
<g><path style="opacity:1" fill="#f9f8f6" d="M 175.5,187.5 C 175.5,188.167 175.5,188.833 175.5,189.5C 168.033,219.97 163.033,250.97 160.5,282.5C 161.012,304.04 167.679,323.373 180.5,340.5C 177.606,339.118 175.106,337.118 173,334.5C 155.335,314.865 148.669,291.865 153,265.5C 155.295,248.064 158.128,230.731 161.5,213.5C 164.132,205.942 166.799,198.276 169.5,190.5C 171.243,188.962 173.243,187.962 175.5,187.5 Z"/></g>
<g><path style="opacity:1" fill="#f2f0ed" d="M 150.5,231.5 C 135.153,229.957 125.653,236.957 122,252.5C 121.287,259.203 121.454,265.87 122.5,272.5C 116.837,260.057 117.337,247.724 124,235.5C 131.683,226.449 140.516,225.116 150.5,231.5 Z"/></g>
<g><path style="opacity:1" fill="#d79281" d="M 132.5,244.5 C 136.698,243.231 140.365,244.397 143.5,248C 141.807,248.847 140.14,249.68 138.5,250.5C 137.5,247.5 135.5,245.5 132.5,244.5 Z"/></g>
<g><path style="opacity:1" fill="#f8c29e" d="M 270.5,180.5 C 270.932,179.29 271.599,178.29 272.5,177.5C 272.833,177.5 273.167,177.5 273.5,177.5C 276.534,179.018 279.867,179.851 283.5,180C 294.968,181.02 306.301,180.52 317.5,178.5C 320.872,177.599 324.205,177.599 327.5,178.5C 330.123,183.447 333.456,187.78 337.5,191.5C 341.14,215.093 344.307,238.76 347,262.5C 348.132,307.71 327.299,337.877 284.5,353C 249.072,363.03 215.406,358.863 183.5,340.5C 183.167,340.667 182.833,340.833 182.5,341C 183.71,342.039 184.71,343.206 185.5,344.5C 183.251,343.92 181.585,342.587 180.5,340.5C 167.679,323.373 161.012,304.04 160.5,282.5C 163.033,250.97 168.033,219.97 175.5,189.5C 175.47,190.497 175.97,191.164 177,191.5C 189.804,187.197 198.971,178.864 204.5,166.5C 225.408,183.978 249.074,189.644 275.5,183.5C 274.06,182.048 272.394,181.048 270.5,180.5 Z"/></g>
<g><path style="opacity:1" fill="#faf6ed" d="M 250.5,257.5 C 247.724,258.089 245.39,259.422 243.5,261.5C 246.606,252.746 248.939,243.746 250.5,234.5C 251.648,242.167 251.648,249.833 250.5,257.5 Z"/></g>
<g><path style="opacity:1" fill="#191433" d="M 217.5,223.5 C 218.833,223.5 220.167,223.5 221.5,223.5C 221.938,223.435 222.272,223.601 222.5,224C 218.099,224.811 217.766,225.977 221.5,227.5C 222.842,226.098 223.676,226.431 224,228.5C 224.669,225.972 225.502,225.972 226.5,228.5C 226.291,229.086 225.957,229.586 225.5,230C 227.134,230.494 228.801,230.66 230.5,230.5C 235.415,243.186 233.749,255.019 225.5,266C 226.5,267 227.5,268 228.5,269C 218.441,265.736 208.108,263.236 197.5,261.5C 195.031,260.683 192.365,260.183 189.5,260C 193.06,258.763 196.727,258.263 200.5,258.5C 201.376,258.631 202.043,258.298 202.5,257.5C 196.699,241.196 201.699,229.862 217.5,223.5 Z"/></g>
<g><path style="opacity:1" fill="#3c4f78" d="M 207.5,249.5 C 208.833,249.5 210.167,249.5 211.5,249.5C 211.548,252.313 212.215,254.979 213.5,257.5C 211.994,258.747 210.494,258.747 209,257.5C 206.884,255.004 206.384,252.337 207.5,249.5 Z"/></g>
<g><path style="opacity:1" fill="#f1f1f3" d="M 207.5,233.5 C 214.486,233.331 216.153,236.164 212.5,242C 205.891,242.294 204.224,239.461 207.5,233.5 Z"/></g>
<g><path style="opacity:1" fill="#19152d" d="M 230.5,230.5 C 228.801,230.66 227.134,230.494 225.5,230C 225.957,229.586 226.291,229.086 226.5,228.5C 225.502,225.972 224.669,225.972 224,228.5C 223.676,226.431 222.842,226.098 221.5,227.5C 217.766,225.977 218.099,224.811 222.5,224C 222.272,223.601 221.938,223.435 221.5,223.5C 219.572,221.526 217.239,220.026 214.5,219C 199.209,216.792 190.209,223.292 187.5,238.5C 186.239,244.379 186.406,250.379 188,256.5C 192.268,257.14 196.435,257.807 200.5,258.5C 196.727,258.263 193.06,258.763 189.5,260C 192.365,260.183 195.031,260.683 197.5,261.5C 191.491,261.666 185.491,261.499 179.5,261C 181.895,260.319 184.228,259.485 186.5,258.5C 178.482,243.149 180.482,229.316 192.5,217C 209.957,208.357 222.624,212.857 230.5,230.5 Z"/></g>
<g><path style="opacity:1" fill="#f7f7f8" d="M 217.5,223.5 C 201.699,229.862 196.699,241.196 202.5,257.5C 202.043,258.298 201.376,258.631 200.5,258.5C 196.435,257.807 192.268,257.14 188,256.5C 186.406,250.379 186.239,244.379 187.5,238.5C 193.602,225.449 203.602,220.449 217.5,223.5 Z"/></g>
<g><path style="opacity:1" fill="#191430" d="M 300.5,212.5 C 320.271,211.936 330.271,221.602 330.5,241.5C 330.108,247.734 328.774,253.734 326.5,259.5C 328.564,259.687 330.564,260.187 332.5,261C 325.833,261.333 319.167,261.667 312.5,262C 302.541,263.574 292.874,265.907 283.5,269C 286.939,266.608 286.772,264.108 283,261.5C 277.833,248.513 278.499,235.846 285,223.5C 289.162,218.19 294.329,214.524 300.5,212.5 Z"/></g>
<g><path style="opacity:1" fill="#415779" d="M 301.5,249.5 C 305.669,250.519 306.503,252.853 304,256.5C 302.677,259.059 300.843,259.725 298.5,258.5C 300.105,255.686 301.105,252.686 301.5,249.5 Z"/></g>
<g><path style="opacity:1" fill="#f1f0f3" d="M 287.5,233.5 C 293.643,234.026 294.976,236.86 291.5,242C 286.824,242.986 284.658,241.152 285,236.5C 285.698,235.309 286.531,234.309 287.5,233.5 Z"/></g>
<g><path style="opacity:1" fill="#c8dae7" d="M 324.5,237.5 C 321.024,231.859 316.357,227.359 310.5,224C 305.905,222.607 301.239,222.274 296.5,223C 297.056,223.383 297.389,223.883 297.5,224.5C 289.993,223.724 289.993,221.891 297.5,219C 312.325,216.657 321.325,222.824 324.5,237.5 Z"/></g>
<g><path style="opacity:1" fill="#f9f9fa" d="M 324.5,237.5 C 325.846,244.056 325.679,250.722 324,257.5C 319.625,257.758 315.125,257.758 310.5,257.5C 314.062,246.477 312.062,236.644 304.5,228C 302.391,226.354 300.057,225.188 297.5,224.5C 297.389,223.883 297.056,223.383 296.5,223C 301.239,222.274 305.905,222.607 310.5,224C 316.357,227.359 321.024,231.859 324.5,237.5 Z"/></g>
<g><path style="opacity:1" fill="#c7d9e6" d="M 221.5,223.5 C 220.167,223.5 218.833,223.5 217.5,223.5C 203.602,220.449 193.602,225.449 187.5,238.5C 190.209,223.292 199.209,216.792 214.5,219C 217.239,220.026 219.572,221.526 221.5,223.5 Z"/></g>
<g><path style="opacity:1" fill="#19142f" d="M 297.5,183.5 C 307.507,182.454 316.007,185.454 323,192.5C 323.667,194.5 323.667,196.5 323,198.5C 321.938,199.097 320.772,199.43 319.5,199.5C 315.66,197.754 311.66,196.254 307.5,195C 301.782,194.789 296.115,194.289 290.5,193.5C 288.876,192.131 288.376,190.464 289,188.5C 291.398,185.892 294.231,184.225 297.5,183.5 Z"/></g>
<g><path style="opacity:1" fill="#18132e" d="M 205.5,183.5 C 211.123,183.049 216.456,184.049 221.5,186.5C 224.167,188.833 224.167,191.167 221.5,193.5C 215.885,194.289 210.218,194.789 204.5,195C 200.71,196.646 196.877,198.146 193,199.5C 189.261,199.095 187.927,197.095 189,193.5C 193.07,187.719 198.57,184.385 205.5,183.5 Z"/></g>
<g><path style="opacity:1" fill="#181329" d="M 270.5,274.5 C 269.257,277.313 267.257,277.979 264.5,276.5C 265.145,275.354 265.978,274.354 267,273.5C 267.765,271.934 267.598,270.601 266.5,269.5C 266.672,268.508 266.338,267.842 265.5,267.5C 265.489,265.983 264.823,264.816 263.5,264C 258.5,260.667 253.5,260.667 248.5,264C 246.84,265.488 245.84,267.321 245.5,269.5C 245.5,270.5 245.5,271.5 245.5,272.5C 245.297,274.39 245.963,275.89 247.5,277C 245.803,277.384 244.137,277.218 242.5,276.5C 239.645,271.292 239.979,266.292 243.5,261.5C 245.39,259.422 247.724,258.089 250.5,257.5C 264.701,254.716 271.367,260.383 270.5,274.5 Z"/></g>
<g><path style="opacity:1" fill="#fbf8d6" d="M 471.5,226.5 C 472.302,227.952 472.802,229.618 473,231.5C 473.826,243.008 473.659,254.341 472.5,265.5C 472.661,252.482 472.327,239.482 471.5,226.5 Z"/></g>
<g><path style="opacity:1" fill="#cd9587" d="M 140.5,289.5 C 141.833,289.5 143.167,289.5 144.5,289.5C 144.58,278.157 144.913,266.824 145.5,255.5C 144.127,255.343 142.793,255.51 141.5,256C 140.295,257.376 138.962,258.542 137.5,259.5C 139.363,254.303 142.529,252.97 147,255.5C 146.003,267.112 145.503,278.779 145.5,290.5C 143.585,290.784 141.919,290.451 140.5,289.5 Z"/></g>
<g><path style="opacity:1" fill="#e9e6e4" d="M 265.5,267.5 C 258.347,264.296 251.68,264.962 245.5,269.5C 245.84,267.321 246.84,265.488 248.5,264C 253.5,260.667 258.5,260.667 263.5,264C 264.823,264.816 265.489,265.983 265.5,267.5 Z"/></g>
<g><path style="opacity:1" fill="#e5997d" d="M 140.5,289.5 C 134.782,288.111 130.115,285.111 126.5,280.5C 130.226,282.487 134.06,282.82 138,281.5C 136.82,275.437 135.32,269.437 133.5,263.5C 134.117,263.611 134.617,263.944 135,264.5C 135.374,262.509 136.207,260.842 137.5,259.5C 138.962,258.542 140.295,257.376 141.5,256C 142.793,255.51 144.127,255.343 145.5,255.5C 144.913,266.824 144.58,278.157 144.5,289.5C 143.167,289.5 141.833,289.5 140.5,289.5 Z"/></g>
<g><path style="opacity:1" fill="#f9c19c" d="M 265.5,267.5 C 266.338,267.842 266.672,268.508 266.5,269.5C 266.719,270.675 266.386,271.675 265.5,272.5C 258.861,269.94 252.194,269.94 245.5,272.5C 245.5,271.5 245.5,270.5 245.5,269.5C 251.68,264.962 258.347,264.296 265.5,267.5 Z"/></g>
<g><path style="opacity:1" fill="#f6c39f" d="M 150.5,231.5 C 151.032,236.054 150.532,240.72 149,245.5C 141.143,237.407 133.643,237.574 126.5,246C 126.833,246.167 127.167,246.333 127.5,246.5C 128.85,245.05 130.516,244.383 132.5,244.5C 135.5,245.5 137.5,247.5 138.5,250.5C 135.229,254.1 133.562,258.434 133.5,263.5C 135.32,269.437 136.82,275.437 138,281.5C 134.06,282.82 130.226,282.487 126.5,280.5C 124.642,278.117 123.308,275.45 122.5,272.5C 121.454,265.87 121.287,259.203 122,252.5C 125.653,236.957 135.153,229.957 150.5,231.5 Z"/></g>
<g><path style="opacity:1" fill="#f2a591" d="M 182.5,271.5 C 188.38,271.048 194.047,271.882 199.5,274C 204.077,279.104 203.077,282.77 196.5,285C 188.983,287.618 182.15,286.451 176,281.5C 175.506,276.485 177.673,273.152 182.5,271.5 Z"/></g>
<g><path style="opacity:1" fill="#e9db9a" d="M 115.5,236.5 C 111.252,250.283 111.585,263.949 116.5,277.5C 114.454,276.641 113.121,275.141 112.5,273C 111.396,263.191 111.229,253.357 112,243.5C 112.898,240.931 114.065,238.598 115.5,236.5 Z"/></g>
<g><path style="opacity:1" fill="#e8947a" d="M 266.5,269.5 C 267.598,270.601 267.765,271.934 267,273.5C 265.978,274.354 265.145,275.354 264.5,276.5C 267.257,277.979 269.257,277.313 270.5,274.5C 270.451,277.099 269.451,279.266 267.5,281C 260.693,285.225 253.693,285.559 246.5,282C 244.536,280.549 243.203,278.716 242.5,276.5C 244.137,277.218 245.803,277.384 247.5,277C 245.963,275.89 245.297,274.39 245.5,272.5C 252.194,269.94 258.861,269.94 265.5,272.5C 266.386,271.675 266.719,270.675 266.5,269.5 Z"/></g>
<g><path style="opacity:1" fill="#f3a995" d="M 317.5,271.5 C 324.483,270.469 330.65,272.136 336,276.5C 337.091,281.098 335.257,283.931 330.5,285C 323.482,287.498 316.816,286.832 310.5,283C 308.813,281.087 308.313,278.92 309,276.5C 311.682,274.415 314.516,272.748 317.5,271.5 Z"/></g>
<g><path style="opacity:1" fill="#fcfae1" d="M 38.5,236.5 C 37.5802,257.674 38.9136,278.674 42.5,299.5C 41.8826,299.389 41.3826,299.056 41,298.5C 37.4411,277.804 36.6078,257.137 38.5,236.5 Z"/></g>
<g><path style="opacity:1" fill="#191430" d="M 223.5,290.5 C 224.653,291.313 224.653,292.313 223.5,293.5C 225,293.833 226.5,294.167 228,294.5C 248.21,296.069 268.377,295.736 288.5,293.5C 287.674,292.549 287.508,291.549 288,290.5C 292.219,293.052 295.386,296.552 297.5,301C 295.023,301.24 292.856,300.406 291,298.5C 287.124,321.352 273.624,332.185 250.5,331C 233.401,326.896 223.568,316.062 221,298.5C 219.013,300.088 216.846,300.921 214.5,301C 216.646,296.693 219.646,293.193 223.5,290.5 Z"/></g>
<g><path style="opacity:1" fill="#eeeef0" d="M 232.5,299.5 C 247.996,299.51 263.662,299.343 279.5,299C 278.101,302.064 275.768,304.064 272.5,305C 261.486,308.288 250.486,308.288 239.5,305C 236.695,303.618 234.361,301.784 232.5,299.5 Z"/></g>
<g><path style="opacity:1" fill="#e8947a" d="M 337.5,191.5 C 338.741,193.931 339.908,193.931 341,191.5C 341.333,191.833 341.667,192.167 342,192.5C 344.983,201.285 348.15,209.951 351.5,218.5C 351.833,219.167 352.167,219.833 352.5,220.5C 353.554,225.107 354.221,229.773 354.5,234.5C 356.396,249.629 358.063,264.795 359.5,280C 359.305,289.67 357.971,299.17 355.5,308.5C 352.722,316.055 348.888,323.055 344,329.5C 337.238,336.767 330.072,343.434 322.5,349.5C 315.446,353.694 308.112,357.361 300.5,360.5C 291.643,363.173 282.643,365.339 273.5,367C 261.505,367.5 249.505,367.667 237.5,367.5C 217.891,364.69 200.558,357.023 185.5,344.5C 184.71,343.206 183.71,342.039 182.5,341C 182.833,340.833 183.167,340.667 183.5,340.5C 215.406,358.863 249.072,363.03 284.5,353C 327.299,337.877 348.132,307.71 347,262.5C 344.307,238.76 341.14,215.093 337.5,191.5 Z"/></g>
<g><path style="opacity:1" fill="#c88e81" d="M 354.5,234.5 C 359.114,253.445 360.948,272.779 360,292.5C 359.306,298.183 357.806,303.516 355.5,308.5C 357.971,299.17 359.305,289.67 359.5,280C 358.063,264.795 356.396,249.629 354.5,234.5 Z"/></g>
<g><path style="opacity:1" fill="#e25e6d" d="M 249.5,317.5 C 257.677,316.281 265.01,318.114 271.5,323C 264.742,327.167 257.409,328.5 249.5,327C 245.995,326.343 242.995,324.843 240.5,322.5C 243.433,320.538 246.433,318.871 249.5,317.5 Z"/></g>
<g><path style="opacity:1" fill="#19152f" d="M 381.5,200.5 C 380.325,207.531 378.992,214.531 377.5,221.5C 383.91,222.291 389.077,225.291 393,230.5C 400.271,241.933 402.271,254.267 399,267.5C 395.33,286.013 384.163,295.68 365.5,296.5C 361.003,320.491 348.67,339.324 328.5,353C 336.895,355.465 345.228,358.132 353.5,361C 368.611,366.138 380.111,375.638 388,389.5C 392.487,398.136 396.653,406.803 400.5,415.5C 399.797,417.716 398.464,419.549 396.5,421C 386.479,429.198 375.813,436.364 364.5,442.5C 364.586,441.504 364.252,440.671 363.5,440C 365.256,439.798 366.922,439.298 368.5,438.5C 368.023,437.522 367.357,436.689 366.5,436C 369.5,435.667 372.5,435.333 375.5,435C 370.522,432.539 371.189,431.205 377.5,431C 378.893,428.317 380.226,428.15 381.5,430.5C 382.386,429.675 382.719,428.675 382.5,427.5C 385.718,427.349 386.051,426.516 383.5,425C 384.905,423.731 386.571,423.231 388.5,423.5C 388.5,422.167 388.5,420.833 388.5,419.5C 389.81,417.852 391.143,416.186 392.5,414.5C 388.557,403.278 383.057,392.944 376,383.5C 372.419,379.248 368.252,375.748 363.5,373C 354.642,368.564 345.642,364.73 336.5,361.5C 336.421,360.07 336.754,358.736 337.5,357.5C 334.247,356.402 330.914,355.736 327.5,355.5C 327.5,353.833 327.5,352.167 327.5,350.5C 325.708,350.634 324.042,350.301 322.5,349.5C 330.072,343.434 337.238,336.767 344,329.5C 348.888,323.055 352.722,316.055 355.5,308.5C 357.806,303.516 359.306,298.183 360,292.5C 360.948,272.779 359.114,253.445 354.5,234.5C 354.221,229.773 353.554,225.107 352.5,220.5C 353.151,221.091 353.818,221.757 354.5,222.5C 356.415,220.929 357.415,218.929 357.5,216.5C 358.531,218.961 359.198,221.627 359.5,224.5C 362.947,222.91 366.613,221.91 370.5,221.5C 371.13,217.952 372.13,214.619 373.5,211.5C 373.281,215.527 374.448,216.194 377,213.5C 378.075,208.785 379.575,204.452 381.5,200.5 Z"/></g>
<g><path style="opacity:1" fill="#ca8f82" d="M 366.5,254.5 C 367.709,265.798 368.376,277.132 368.5,288.5C 372.331,288.584 375.998,287.917 379.5,286.5C 375.693,289.207 371.36,290.54 366.5,290.5C 366.795,278.345 366.795,266.345 366.5,254.5 Z"/></g>
<g><path style="opacity:1" fill="#e6967c" d="M 379.5,286.5 C 375.998,287.917 372.331,288.584 368.5,288.5C 368.376,277.132 367.709,265.798 366.5,254.5C 367.601,253.402 368.934,253.235 370.5,254C 374.666,257.165 377.166,261.332 378,266.5C 379.955,257.999 377.122,251.833 369.5,248C 374.211,242.791 379.378,242.291 385,246.5C 385.167,243.968 384,242.134 381.5,241C 374.534,238.09 368.701,239.59 364,245.5C 358.247,234.228 361.58,228.228 374,227.5C 383.267,228.423 389.267,233.423 392,242.5C 395.224,255.564 393.557,267.898 387,279.5C 384.63,282.039 382.13,284.372 379.5,286.5 Z"/></g>
<g><path style="opacity:1" fill="#150e21" d="M 246.5,339.5 C 253.338,340.459 260.005,340.792 266.5,340.5C 260.53,345.089 254.197,345.589 247.5,342C 246.748,341.329 246.414,340.496 246.5,339.5 Z"/></g>
<g><path style="opacity:1" fill="#de977f" d="M 246.5,339.5 C 246.414,340.496 246.748,341.329 247.5,342C 254.197,345.589 260.53,345.089 266.5,340.5C 265.027,345.669 261.527,348.336 256,348.5C 251.691,348.203 248.357,346.203 246,342.5C 245.221,340.486 245.388,339.486 246.5,339.5 Z"/></g>
<g><path style="opacity:1" fill="#f0f6f6" d="M 193.5,360.5 C 178.252,364.972 163.918,371.472 150.5,380C 138.706,391.083 130.039,404.249 124.5,419.5C 124.167,419.5 123.833,419.5 123.5,419.5C 121.73,418.236 120.063,416.736 118.5,415C 122.268,406.63 126.435,398.464 131,390.5C 135.5,383.333 141.333,377.5 148.5,373C 162.218,366.149 176.552,360.983 191.5,357.5C 192.919,358.005 193.585,359.005 193.5,360.5 Z"/></g>
<g><path style="opacity:1" fill="#181739" d="M 322.5,349.5 C 324.042,350.301 325.708,350.634 327.5,350.5C 327.5,352.167 327.5,353.833 327.5,355.5C 330.914,355.736 334.247,356.402 337.5,357.5C 336.754,358.736 336.421,360.07 336.5,361.5C 330.925,360.023 325.258,359.023 319.5,358.5C 318.595,372.56 313.595,384.893 304.5,395.5C 283.346,415.032 259.013,420.199 231.5,411C 215.258,404.259 203.925,392.759 197.5,376.5C 198.627,375.878 199.627,375.045 200.5,374C 199.657,371.987 199.657,369.82 200.5,367.5C 209.252,393.741 227.586,407.741 255.5,409.5C 267.788,409.179 279.121,405.846 289.5,399.5C 302.593,390.573 310.093,378.239 312,362.5C 309.457,364.105 306.791,365.438 304,366.5C 298.249,383.085 287.082,394.085 270.5,399.5C 262.352,400.715 254.352,400.715 246.5,399.5C 246.574,397.589 247.574,396.422 249.5,396C 254.019,395.825 258.353,395.325 262.5,394.5C 263.167,394.167 263.833,393.833 264.5,393.5C 277.516,391.328 287.516,384.661 294.5,373.5C 295.5,373.5 296.5,373.5 297.5,373.5C 297.893,370.07 297.227,366.904 295.5,364C 297.32,363.8 298.653,362.966 299.5,361.5C 300.167,361.5 300.5,361.167 300.5,360.5C 308.112,357.361 315.446,353.694 322.5,349.5 Z"/></g>
<g><path style="opacity:1" fill="#29a7e4" d="M 193.5,360.5 C 193.917,366.17 195.251,371.503 197.5,376.5C 203.925,392.759 215.258,404.259 231.5,411C 259.013,420.199 283.346,415.032 304.5,395.5C 319.384,391.656 333.051,385.323 345.5,376.5C 351.172,381.008 356.005,386.342 360,392.5C 366.562,403.951 371.728,415.951 375.5,428.5C 372.411,430.925 369.078,432.925 365.5,434.5C 360.189,423.21 354.355,412.21 348,401.5C 347.195,404.696 347.362,407.696 348.5,410.5C 348.925,419.513 349.592,428.513 350.5,437.5C 350.468,439.759 350.134,441.925 349.5,444C 306.707,465.637 261.707,471.97 214.5,463C 195.965,459.044 178.298,452.711 161.5,444C 160.941,443.275 160.608,442.442 160.5,441.5C 161.805,430.863 162.805,420.196 163.5,409.5C 164.788,407.965 164.788,406.299 163.5,404.5C 162.914,404.709 162.414,405.043 162,405.5C 156.473,415.229 150.973,424.896 145.5,434.5C 137.934,430.224 130.934,425.224 124.5,419.5C 130.039,404.249 138.706,391.083 150.5,380C 163.918,371.472 178.252,364.972 193.5,360.5 Z"/></g>
<g><path style="opacity:1" fill="#2583c2" d="M 336.5,361.5 C 345.642,364.73 354.642,368.564 363.5,373C 368.252,375.748 372.419,379.248 376,383.5C 383.057,392.944 388.557,403.278 392.5,414.5C 391.143,416.186 389.81,417.852 388.5,419.5C 384.021,422.243 379.688,425.243 375.5,428.5C 371.728,415.951 366.562,403.951 360,392.5C 356.005,386.342 351.172,381.008 345.5,376.5C 333.051,385.323 319.384,391.656 304.5,395.5C 313.595,384.893 318.595,372.56 319.5,358.5C 325.258,359.023 330.925,360.023 336.5,361.5 Z"/></g>
<g><path style="opacity:1" fill="#cb8c80" d="M 300.5,360.5 C 300.5,361.167 300.167,361.5 299.5,361.5C 279.245,369.257 258.579,371.257 237.5,367.5C 249.505,367.667 261.505,367.5 273.5,367C 282.643,365.339 291.643,363.173 300.5,360.5 Z"/></g>
<g><path style="opacity:1" fill="#e3947b" d="M 294.5,373.5 C 287.516,384.661 277.516,391.328 264.5,393.5C 265.275,389.818 263.941,387.318 260.5,386C 246.938,385.3 233.938,382.467 221.5,377.5C 218.759,375.373 217.759,372.706 218.5,369.5C 234.729,375.084 251.396,376.918 268.5,375C 278.027,373.946 287.36,372.279 296.5,370C 295.695,371.113 295.028,372.279 294.5,373.5 Z"/></g>
<g><path style="opacity:1" fill="#287db9" d="M 289.5,399.5 C 283.345,398.864 277.011,398.864 270.5,399.5C 287.082,394.085 298.249,383.085 304,366.5C 306.791,365.438 309.457,364.105 312,362.5C 310.093,378.239 302.593,390.573 289.5,399.5 Z"/></g>
<g><path style="opacity:1" fill="#f7c19c" d="M 221.5,377.5 C 233.938,382.467 246.938,385.3 260.5,386C 263.941,387.318 265.275,389.818 264.5,393.5C 263.833,393.833 263.167,394.167 262.5,394.5C 245.624,396.22 231.957,390.553 221.5,377.5 Z"/></g>
<g><path style="opacity:1" fill="#2da1dc" d="M 246.5,399.5 C 254.352,400.715 262.352,400.715 270.5,399.5C 277.011,398.864 283.345,398.864 289.5,399.5C 279.121,405.846 267.788,409.179 255.5,409.5C 227.586,407.741 209.252,393.741 200.5,367.5C 200.34,365.801 200.506,364.134 201,362.5C 203.304,364.068 205.804,365.235 208.5,366C 214.178,385.182 226.844,396.349 246.5,399.5 Z"/></g>
<g><path style="opacity:1" fill="#267cba" d="M 365.5,434.5 C 363.41,436.39 361.077,438.057 358.5,439.5C 354.911,429.135 351.745,418.468 349,407.5C 348.517,408.448 348.351,409.448 348.5,410.5C 347.362,407.696 347.195,404.696 348,401.5C 354.355,412.21 360.189,423.21 365.5,434.5 Z"/></g>
<g><path style="opacity:1" fill="#287eba" d="M 163.5,409.5 C 163.631,408.761 163.464,408.094 163,407.5C 159.85,417.75 157.017,428.083 154.5,438.5C 151.052,438.619 148.052,437.285 145.5,434.5C 150.973,424.896 156.473,415.229 162,405.5C 162.414,405.043 162.914,404.709 163.5,404.5C 164.788,406.299 164.788,407.965 163.5,409.5 Z"/></g>
<g><path style="opacity:1" fill="#171634" d="M 163.5,409.5 C 162.805,420.196 161.805,430.863 160.5,441.5C 160.608,442.442 160.941,443.275 161.5,444C 178.298,452.711 195.965,459.044 214.5,463C 261.707,471.97 306.707,465.637 349.5,444C 350.134,441.925 350.468,439.759 350.5,437.5C 349.592,428.513 348.925,419.513 348.5,410.5C 348.351,409.448 348.517,408.448 349,407.5C 351.745,418.468 354.911,429.135 358.5,439.5C 361.077,438.057 363.41,436.39 365.5,434.5C 369.078,432.925 372.411,430.925 375.5,428.5C 379.688,425.243 384.021,422.243 388.5,419.5C 388.5,420.833 388.5,422.167 388.5,423.5C 386.571,423.231 384.905,423.731 383.5,425C 386.051,426.516 385.718,427.349 382.5,427.5C 382.719,428.675 382.386,429.675 381.5,430.5C 380.226,428.15 378.893,428.317 377.5,431C 371.189,431.205 370.522,432.539 375.5,435C 372.5,435.333 369.5,435.667 366.5,436C 367.357,436.689 368.023,437.522 368.5,438.5C 366.922,439.298 365.256,439.798 363.5,440C 364.252,440.671 364.586,441.504 364.5,442.5C 327.141,465.173 286.474,475.34 242.5,473C 194.798,469.17 152.798,452.004 116.5,421.5C 116.611,420.883 116.944,420.383 117.5,420C 119.473,419.505 121.473,419.338 123.5,419.5C 123.833,419.5 124.167,419.5 124.5,419.5C 130.934,425.224 137.934,430.224 145.5,434.5C 148.052,437.285 151.052,438.619 154.5,438.5C 157.017,428.083 159.85,417.75 163,407.5C 163.464,408.094 163.631,408.761 163.5,409.5 Z"/></g>
</svg>
